<?xml version="1.0" encoding="utf-8"?>
<!-- Generator: Adobe Illustrator 21.1.0, SVG Export Plug-In . SVG Version: 6.00 Build 0)  -->
<svg version="1.1" id="Layer_1" xmlns="http://www.w3.org/2000/svg" xmlns:xlink="http://www.w3.org/1999/xlink" x="0px" y="0px"
	 viewBox="0 0 2742.5 2000" style="enable-background:new 0 0 2742.5 2000;" xml:space="preserve">
<style type="text/css">
	.st0{fill:#122242;}
	.st1{fill:#FFFFFF;}
	.st2{fill-rule:evenodd;clip-rule:evenodd;fill:#FFFFFF;}
</style>
<g>
	<rect class="st0" width="2742.5" height="2000"/>
	<g>
		<g>
			<polygon class="st1" points="810.7,992.9 820.6,997.9 820.1,1009.2 738.6,1056.3 729.2,1040 810.7,992.9 			"/>
			<polygon class="st1" points="463.2,1193 472.6,1209.3 558.8,1159.7 549.4,1143.4 463.2,1193 			"/>
			<polygon class="st1" points="598.7,1115.7 608.2,1132 689.6,1084.7 680.1,1068.4 598.7,1115.7 			"/>
			<polygon class="st1" points="999.1,992.9 989.3,997.9 989.7,1009.2 1071.2,1056.3 1080.6,1040 999.1,992.9 			"/>
			<polygon class="st1" points="1346.6,1193 1337.3,1209.3 1251,1159.7 1260.4,1143.4 1346.6,1193 			"/>
			<polygon class="st1" points="1211.1,1115.7 1201.7,1132 1120.3,1084.7 1129.7,1068.4 1211.1,1115.7 			"/>
			<polygon class="st2" points="913.1,697 894.3,697 894.3,602.9 913.1,602.9 913.1,697 			"/>
			<polygon class="st2" points="913.1,847.6 903.9,851.4 894.3,847.6 894.3,753.5 913.1,753.5 913.1,847.6 			"/>
			<polygon class="st2" points="894.3,447 913.1,447 913.1,546.4 894.3,546.4 894.3,447 			"/>
			<path class="st1" d="M925.8,368.2l472.1,272.6l15.8,9.1l5.1,2.9v5.8v18.2v272.6V1222v18.2v5.8l-5.1,2.9l-15.8,9.1l-236.1,136.3
				l-121.5,70.1l-15.2,8.8v-17.5v-72.8v-5.8l5.1-2.9l89.9-51.9l168.6-97.3v0l46.7-26.9l-0.1-46.8V949.4V748.9L946.6,973.3v567.8
				v18.2v54.6v5.8l-5.1,2.9l-15.8,9.1l-15.8,9.1l-5,2.9l-5-2.9l-15.8-9.1l-15.8-9.1l-5.1-2.9v-5.8v-54.6v-18.2V973.3L474.5,748.9
				v200.5v213.4v24.4l0.1-0.1l0,11.1l30.3,17.4l184.7,106.7l89.9,51.9l5.1,2.9v5.8v72.8v17.5l-15.1-8.7L648,1394.3h0L411.9,1258
				l-15.8-9.1l-5.1-2.9v-5.8V1222V949.4V676.8v-18.2v-5.8l5.1-2.9l15.8-9.1C569.3,550,726.7,459.1,884.1,368.2h0l15.8-9.1l5-2.9
				l5,2.9L925.8,368.2L925.8,368.2L925.8,368.2z M515.9,676.9l389,224.6l389-224.6L937.6,471.1l-32.5-19l-64.3,37.1l-4.5,2.6
				C729.5,553.6,622.7,615.2,515.9,676.9L515.9,676.9z"/>
		</g>
		<g>
			<path class="st1" d="M1688.9,1206.8c0,20.6-6.9,37.5-20.8,50.4c-13.9,13-30.5,19.5-50,19.5c-20.1,0-36.9-6.5-50.4-19.5
				c-13.6-13-20.3-29.8-20.3-50.4c0-20.6,6.8-37.6,20.3-50.9c13.6-13.3,30.4-19.9,50.4-19.9c19.5,0,36.1,6.6,50,19.9
				C1682,1169.2,1688.9,1186.1,1688.9,1206.8z"/>
			<path class="st1" d="M1744.6,1429.7c-7.7,0-18.4-0.7-32.3-2.2c-13.8-1.5-26.1-4.3-36.7-8.4l14.2-87.6c13,4.1,28.6,6.2,46.9,6.2
				c24.8,0,42.2-7.2,52.2-21.7c10-14.5,15-36.1,15-65V802.5h107v450.2c0,60.2-14.3,104.7-42.9,133.6
				C1839.4,1415.2,1798.3,1429.7,1744.6,1429.7z M1922.4,667.2c0,20.1-6.5,36-19.5,47.8c-13,11.8-28.3,17.7-46,17.7
				c-18.3,0-33.9-5.9-46.9-17.7c-13-11.8-19.5-27.7-19.5-47.8c0-20.6,6.5-36.8,19.5-48.7c13-11.8,28.6-17.7,46.9-17.7
				c17.7,0,33,5.9,46,17.7C1915.9,630.4,1922.4,646.6,1922.4,667.2z"/>
			<path class="st1" d="M2163,1188.2c28.3,0,48.9-3.4,61.9-10.2c13-6.8,19.5-18.4,19.5-34.9c0-15.3-6.9-28-20.8-38
				c-13.9-10-36.7-20.9-68.6-32.7c-19.5-7.1-37.3-14.6-53.5-22.6c-16.2-8-30.2-17.2-42-27.9c-11.8-10.6-21.1-23.4-27.9-38.5
				c-6.8-15-10.2-33.5-10.2-55.3c0-42.5,15.6-75.9,46.9-100.4c31.2-24.5,73.7-36.7,127.4-36.7c27.1,0,53.1,2.5,77.8,7.5
				c24.8,5,43.3,9.9,55.7,14.6l-19.5,86.7c-11.8-5.3-26.8-10.2-45.1-14.6c-18.3-4.4-39.5-6.6-63.7-6.6c-21.8,0-39.5,3.7-53.1,11.1
				c-13.6,7.4-20.3,18.7-20.3,34.1c0,7.7,1.3,14.5,4,20.3c2.7,5.9,7.2,11.4,13.7,16.4c6.5,5,15,10,25.7,15
				c10.6,5,23.6,10.2,38.9,15.5c25.3,9.4,46.9,18.7,64.6,27.9c17.7,9.2,32.3,19.5,43.8,31s19.9,24.6,25.2,39.4
				c5.3,14.7,8,32.4,8,53.1c0,44.2-16.4,77.7-49.1,100.4c-32.7,22.7-79.5,34.1-140.2,34.1c-40.7,0-73.4-3.4-98.2-10.2
				c-24.8-6.8-42.2-12.2-52.2-16.4l18.6-89.3c15.9,6.5,34.9,12.7,57.1,18.6C2109.5,1185.3,2134.7,1188.2,2163,1188.2z"/>
		</g>
	</g>
</g>
</svg>
