<svg width="248" height="53" viewBox="0 0 248 53" fill="none" xmlns="http://www.w3.org/2000/svg">
<rect width="248" height="53" fill="white"/>
<line y1="-0.5" x2="52" y2="-0.5" transform="rotate(90)" stroke="black"/>
<line y1="-0.5" x2="52" y2="-0.5" transform="translate(140) rotate(90)" stroke="black"/>
<line y1="-0.5" x2="68" y2="-0.5" transform="translate(5 13)" stroke="black"/>
<line y1="-0.5" x2="7" y2="-0.5" transform="translate(5 6) rotate(90)" stroke="black"/>
<line y1="-0.5" x2="7" y2="-0.5" transform="translate(73 6) rotate(90)" stroke="black"/>
<line y1="-0.5" x2="99" y2="-0.5" transform="translate(5 30)" stroke="black"/>
<line y1="-0.5" x2="7" y2="-0.5" transform="translate(5 23) rotate(90)" stroke="black"/>
<line y1="-0.5" x2="7" y2="-0.5" transform="translate(104 23) rotate(90)" stroke="black"/>
<line y1="-0.5" x2="62" y2="-0.5" transform="translate(73 47)" stroke="black"/>
<line y1="-0.5" x2="7" y2="-0.5" transform="translate(73 40) rotate(90)" stroke="black"/>
<line y1="-0.5" x2="7" y2="-0.5" transform="translate(135 40) rotate(90)" stroke="black"/>
<path d="M2.808 3.596C2.792 4.1 2.784 4.612 2.784 5.132C2.784 5.644 2.784 6.164 2.784 6.692V7.28C2.784 7.8 2.784 8.316 2.784 8.828C2.784 9.34 2.792 9.856 2.808 10.376L3.924 10.508V11H0.528V10.508L1.632 10.376C1.648 9.872 1.656 9.364 1.656 8.852C1.656 8.332 1.656 7.808 1.656 7.28V6.692C1.656 6.172 1.656 5.656 1.656 5.144C1.656 4.632 1.648 4.116 1.632 3.596L0.528 3.464V2.972H3.924V3.464L2.808 3.596ZM11.3654 10.568V11H8.58141V10.568L9.46941 10.4C9.47741 10.104 9.48141 9.78 9.48141 9.428C9.48941 9.076 9.49341 8.76 9.49341 8.48V7.424C9.49341 6.88 9.41741 6.5 9.26541 6.284C9.11341 6.068 8.86141 5.96 8.50941 5.96C8.22941 5.96 7.95741 6.02 7.69341 6.14C7.43741 6.26 7.15741 6.452 6.85341 6.716V8.48C6.85341 8.744 6.85341 9.056 6.85341 9.416C6.86141 9.768 6.86941 10.096 6.87741 10.4L7.71741 10.568V11H4.93341V10.568L5.82141 10.4C5.82941 10.096 5.83341 9.768 5.83341 9.416C5.84141 9.064 5.84541 8.752 5.84541 8.48V7.868C5.84541 7.54 5.84141 7.268 5.83341 7.052C5.82541 6.836 5.81741 6.608 5.80941 6.368L4.86141 6.26V5.84L6.52941 5.108L6.70941 5.228L6.80541 6.2C7.10141 5.872 7.43741 5.608 7.81341 5.408C8.19741 5.208 8.58141 5.108 8.96541 5.108C9.48541 5.108 9.86941 5.28 10.1174 5.624C10.3734 5.968 10.5014 6.536 10.5014 7.328V8.48C10.5014 8.76 10.5014 9.076 10.5014 9.428C10.5094 9.772 10.5174 10.096 10.5254 10.4L11.3654 10.568ZM14.8265 7.676C15.4345 7.9 15.8585 8.16 16.0985 8.456C16.3465 8.744 16.4705 9.076 16.4705 9.452C16.4705 9.676 16.4225 9.892 16.3265 10.1C16.2305 10.308 16.0825 10.492 15.8825 10.652C15.6905 10.812 15.4465 10.94 15.1505 11.036C14.8625 11.132 14.5265 11.18 14.1425 11.18C13.7985 11.18 13.4865 11.14 13.2065 11.06C12.9345 10.988 12.6465 10.872 12.3425 10.712L12.3065 9.404H12.9665L13.1945 10.436C13.4745 10.564 13.7985 10.628 14.1665 10.628C14.6225 10.628 14.9625 10.544 15.1865 10.376C15.4105 10.208 15.5225 9.984 15.5225 9.704C15.5225 9.448 15.4265 9.244 15.2345 9.092C15.0505 8.94 14.7665 8.792 14.3825 8.648L13.8305 8.444C13.3905 8.284 13.0385 8.076 12.7745 7.82C12.5105 7.556 12.3785 7.232 12.3785 6.848C12.3785 6.616 12.4265 6.396 12.5225 6.188C12.6265 5.98 12.7665 5.796 12.9425 5.636C13.1265 5.476 13.3465 5.348 13.6025 5.252C13.8665 5.156 14.1585 5.108 14.4785 5.108C14.8065 5.108 15.1025 5.152 15.3665 5.24C15.6305 5.32 15.8945 5.44 16.1585 5.6L16.1105 6.824H15.4865L15.3065 5.864C15.0185 5.728 14.7385 5.66 14.4665 5.66C14.0985 5.66 13.8185 5.74 13.6265 5.9C13.4425 6.052 13.3505 6.264 13.3505 6.536C13.3505 6.776 13.4305 6.968 13.5905 7.112C13.7585 7.248 14.0505 7.392 14.4665 7.544L14.8265 7.676ZM20.7973 7.58C21.0853 7.58 21.2773 7.52 21.3733 7.4C21.4693 7.28 21.5173 7.132 21.5173 6.956C21.5173 6.788 21.4813 6.628 21.4093 6.476C21.3453 6.316 21.2533 6.176 21.1333 6.056C21.0213 5.936 20.8853 5.84 20.7253 5.768C20.5733 5.696 20.4053 5.66 20.2213 5.66C20.0533 5.66 19.8773 5.696 19.6933 5.768C19.5173 5.832 19.3533 5.944 19.2013 6.104C19.0573 6.256 18.9293 6.456 18.8173 6.704C18.7133 6.944 18.6453 7.236 18.6133 7.58H20.7973ZM18.5893 8.096C18.6053 8.84 18.7893 9.412 19.1413 9.812C19.4933 10.212 19.9573 10.412 20.5333 10.412C20.9173 10.412 21.2373 10.332 21.4933 10.172C21.7493 10.012 21.9853 9.804 22.2013 9.548L22.4893 9.776C22.2813 10.208 21.9813 10.552 21.5893 10.808C21.2053 11.056 20.7373 11.18 20.1853 11.18C19.7773 11.18 19.4093 11.112 19.0813 10.976C18.7533 10.84 18.4733 10.644 18.2413 10.388C18.0093 10.124 17.8293 9.808 17.7013 9.44C17.5733 9.072 17.5093 8.66 17.5093 8.204C17.5093 7.748 17.5813 7.332 17.7253 6.956C17.8693 6.572 18.0653 6.244 18.3133 5.972C18.5693 5.7 18.8653 5.488 19.2013 5.336C19.5373 5.184 19.8933 5.108 20.2693 5.108C20.5813 5.108 20.8733 5.16 21.1453 5.264C21.4253 5.368 21.6653 5.52 21.8653 5.72C22.0653 5.92 22.2213 6.164 22.3333 6.452C22.4533 6.74 22.5133 7.064 22.5133 7.424C22.5133 7.56 22.5053 7.684 22.4893 7.796C22.4733 7.908 22.4533 8.008 22.4293 8.096H18.5893ZM25.4625 6.632C25.6705 6.152 25.9265 5.78 26.2305 5.516C26.5425 5.244 26.8625 5.108 27.1905 5.108C27.3665 5.108 27.5345 5.156 27.6945 5.252C27.8625 5.34 27.9665 5.488 28.0065 5.696C28.0065 5.896 27.9385 6.056 27.8025 6.176C27.6665 6.288 27.4945 6.344 27.2865 6.344C27.0385 6.344 26.8105 6.244 26.6025 6.044L26.5185 5.96C26.2705 6.144 26.0625 6.364 25.8945 6.62C25.7265 6.868 25.5865 7.172 25.4745 7.532V8.48C25.4745 8.744 25.4745 9.052 25.4745 9.404C25.4825 9.756 25.4905 10.084 25.4985 10.388L26.4825 10.568V11H23.5785V10.568L24.4425 10.412C24.4505 10.108 24.4545 9.78 24.4545 9.428C24.4625 9.068 24.4665 8.752 24.4665 8.48V7.868C24.4665 7.54 24.4625 7.268 24.4545 7.052C24.4465 6.836 24.4385 6.608 24.4305 6.368L23.4825 6.26V5.84L25.1505 5.108L25.3305 5.228L25.4625 6.632ZM32.2237 10.484C32.0717 10.684 31.8717 10.84 31.6237 10.952C31.3837 11.064 31.1117 11.12 30.8077 11.12C30.3837 11.12 30.0477 11.012 29.7997 10.796C29.5597 10.572 29.4397 10.224 29.4397 9.752C29.4397 9.6 29.4397 9.452 29.4397 9.308C29.4477 9.156 29.4517 8.964 29.4517 8.732V5.96H28.4557V5.432L29.5237 5.3L29.8237 3.668H30.5557L30.4957 5.324H32.1037V5.96H30.4717V9.608C30.4717 9.92 30.5277 10.148 30.6397 10.292C30.7597 10.428 30.9237 10.496 31.1317 10.496C31.3717 10.496 31.6397 10.384 31.9357 10.16L32.2237 10.484ZM34.0977 3.824C33.8657 3.824 33.6737 3.752 33.5217 3.608C33.3697 3.464 33.2937 3.276 33.2937 3.044C33.2937 2.812 33.3697 2.628 33.5217 2.492C33.6737 2.348 33.8657 2.276 34.0977 2.276C34.3297 2.276 34.5217 2.348 34.6737 2.492C34.8257 2.628 34.9017 2.812 34.9017 3.044C34.9017 3.276 34.8257 3.464 34.6737 3.608C34.5217 3.752 34.3297 3.824 34.0977 3.824ZM35.4657 10.568V11H32.6817V10.568L33.5817 10.4C33.5897 10.096 33.5937 9.768 33.5937 9.416C33.6017 9.056 33.6057 8.744 33.6057 8.48V7.88C33.6057 7.552 33.6017 7.28 33.5937 7.064C33.5857 6.84 33.5777 6.608 33.5697 6.368L32.6217 6.26V5.84L34.4697 5.108L34.6497 5.228L34.6137 6.86V8.48C34.6137 8.744 34.6137 9.056 34.6137 9.416C34.6217 9.768 34.6297 10.096 34.6377 10.4L35.4657 10.568ZM39.1359 5.66C38.6079 5.66 38.2039 5.876 37.9239 6.308C37.6439 6.732 37.5039 7.352 37.5039 8.168C37.5039 8.976 37.6439 9.592 37.9239 10.016C38.2039 10.432 38.6079 10.64 39.1359 10.64C39.6559 10.64 40.0559 10.432 40.3359 10.016C40.6159 9.592 40.7559 8.976 40.7559 8.168C40.7559 7.352 40.6159 6.732 40.3359 6.308C40.0559 5.876 39.6559 5.66 39.1359 5.66ZM39.1359 5.108C39.4799 5.108 39.8159 5.176 40.1439 5.312C40.4799 5.44 40.7759 5.636 41.0319 5.9C41.2879 6.156 41.4959 6.476 41.6559 6.86C41.8159 7.236 41.8959 7.672 41.8959 8.168C41.8959 8.664 41.8159 9.1 41.6559 9.476C41.5039 9.852 41.2959 10.168 41.0319 10.424C40.7759 10.672 40.4799 10.86 40.1439 10.988C39.8159 11.116 39.4799 11.18 39.1359 11.18C38.7839 11.18 38.4399 11.116 38.1039 10.988C37.7759 10.86 37.4839 10.672 37.2279 10.424C36.9719 10.168 36.7639 9.852 36.6039 9.476C36.4519 9.1 36.3759 8.664 36.3759 8.168C36.3759 7.672 36.4519 7.236 36.6039 6.86C36.7639 6.476 36.9719 6.156 37.2279 5.9C37.4919 5.636 37.7879 5.44 38.1159 5.312C38.4439 5.176 38.7839 5.108 39.1359 5.108ZM49.3459 10.568V11H46.5619V10.568L47.4499 10.4C47.4579 10.104 47.4619 9.78 47.4619 9.428C47.4699 9.076 47.4739 8.76 47.4739 8.48V7.424C47.4739 6.88 47.3979 6.5 47.2459 6.284C47.0939 6.068 46.8419 5.96 46.4899 5.96C46.2099 5.96 45.9379 6.02 45.6739 6.14C45.4179 6.26 45.1379 6.452 44.8339 6.716V8.48C44.8339 8.744 44.8339 9.056 44.8339 9.416C44.8419 9.768 44.8499 10.096 44.8579 10.4L45.6979 10.568V11H42.9139V10.568L43.8019 10.4C43.8099 10.096 43.8139 9.768 43.8139 9.416C43.8219 9.064 43.8259 8.752 43.8259 8.48V7.868C43.8259 7.54 43.8219 7.268 43.8139 7.052C43.8059 6.836 43.7979 6.608 43.7899 6.368L42.8419 6.26V5.84L44.5099 5.108L44.6899 5.228L44.7859 6.2C45.0819 5.872 45.4179 5.608 45.7939 5.408C46.1779 5.208 46.5619 5.108 46.9459 5.108C47.4659 5.108 47.8499 5.28 48.0979 5.624C48.3539 5.968 48.4819 6.536 48.4819 7.328V8.48C48.4819 8.76 48.4819 9.076 48.4819 9.428C48.4899 9.772 48.4979 10.096 48.5059 10.4L49.3459 10.568ZM55.8117 5.66C55.2837 5.66 54.8797 5.876 54.5997 6.308C54.3197 6.732 54.1797 7.352 54.1797 8.168C54.1797 8.976 54.3197 9.592 54.5997 10.016C54.8797 10.432 55.2837 10.64 55.8117 10.64C56.3317 10.64 56.7317 10.432 57.0117 10.016C57.2917 9.592 57.4317 8.976 57.4317 8.168C57.4317 7.352 57.2917 6.732 57.0117 6.308C56.7317 5.876 56.3317 5.66 55.8117 5.66ZM55.8117 5.108C56.1557 5.108 56.4917 5.176 56.8197 5.312C57.1557 5.44 57.4517 5.636 57.7077 5.9C57.9637 6.156 58.1717 6.476 58.3317 6.86C58.4917 7.236 58.5717 7.672 58.5717 8.168C58.5717 8.664 58.4917 9.1 58.3317 9.476C58.1797 9.852 57.9717 10.168 57.7077 10.424C57.4517 10.672 57.1557 10.86 56.8197 10.988C56.4917 11.116 56.1557 11.18 55.8117 11.18C55.4597 11.18 55.1157 11.116 54.7797 10.988C54.4517 10.86 54.1597 10.672 53.9037 10.424C53.6477 10.168 53.4397 9.852 53.2797 9.476C53.1277 9.1 53.0517 8.664 53.0517 8.168C53.0517 7.672 53.1277 7.236 53.2797 6.86C53.4397 6.476 53.6477 6.156 53.9037 5.9C54.1677 5.636 54.4637 5.44 54.7917 5.312C55.1197 5.176 55.4597 5.108 55.8117 5.108ZM61.4977 6.632C61.7057 6.152 61.9617 5.78 62.2657 5.516C62.5777 5.244 62.8977 5.108 63.2257 5.108C63.4017 5.108 63.5697 5.156 63.7297 5.252C63.8977 5.34 64.0017 5.488 64.0417 5.696C64.0417 5.896 63.9737 6.056 63.8377 6.176C63.7017 6.288 63.5297 6.344 63.3217 6.344C63.0737 6.344 62.8457 6.244 62.6377 6.044L62.5537 5.96C62.3057 6.144 62.0977 6.364 61.9297 6.62C61.7617 6.868 61.6217 7.172 61.5097 7.532V8.48C61.5097 8.744 61.5097 9.052 61.5097 9.404C61.5177 9.756 61.5257 10.084 61.5337 10.388L62.5177 10.568V11H59.6137V10.568L60.4777 10.412C60.4857 10.108 60.4897 9.78 60.4897 9.428C60.4977 9.068 60.5017 8.752 60.5017 8.48V7.868C60.5017 7.54 60.4977 7.268 60.4897 7.052C60.4817 6.836 60.4737 6.608 60.4657 6.368L59.5177 6.26V5.84L61.1857 5.108L61.3657 5.228L61.4977 6.632ZM68.675 6.416C68.403 6.184 68.159 6.024 67.943 5.936C67.727 5.84 67.519 5.792 67.319 5.792C67.095 5.792 66.883 5.84 66.683 5.936C66.483 6.032 66.307 6.18 66.155 6.38C66.003 6.572 65.883 6.816 65.795 7.112C65.707 7.408 65.663 7.76 65.663 8.168C65.663 8.568 65.703 8.916 65.783 9.212C65.871 9.5 65.987 9.74 66.131 9.932C66.283 10.124 66.459 10.268 66.659 10.364C66.859 10.452 67.079 10.496 67.319 10.496C67.575 10.496 67.807 10.444 68.015 10.34C68.231 10.228 68.451 10.052 68.675 9.812V6.416ZM70.667 10.568V11L68.795 11.12L68.711 10.316C68.503 10.596 68.267 10.812 68.003 10.964C67.739 11.108 67.415 11.18 67.031 11.18C66.663 11.18 66.327 11.108 66.023 10.964C65.727 10.82 65.471 10.616 65.255 10.352C65.039 10.088 64.871 9.776 64.751 9.416C64.639 9.048 64.583 8.644 64.583 8.204C64.583 7.748 64.647 7.332 64.775 6.956C64.903 6.572 65.079 6.244 65.303 5.972C65.535 5.7 65.807 5.488 66.119 5.336C66.431 5.184 66.771 5.108 67.139 5.108C67.427 5.108 67.699 5.168 67.955 5.288C68.211 5.4 68.463 5.6 68.711 5.888V3.332L67.691 3.212V2.792L69.575 2.252L69.743 2.348L69.695 4.052V10.412L70.667 10.568ZM74.7036 7.58C74.9916 7.58 75.1836 7.52 75.2796 7.4C75.3756 7.28 75.4236 7.132 75.4236 6.956C75.4236 6.788 75.3876 6.628 75.3156 6.476C75.2516 6.316 75.1596 6.176 75.0396 6.056C74.9276 5.936 74.7916 5.84 74.6316 5.768C74.4796 5.696 74.3116 5.66 74.1276 5.66C73.9596 5.66 73.7836 5.696 73.5996 5.768C73.4236 5.832 73.2596 5.944 73.1076 6.104C72.9636 6.256 72.8356 6.456 72.7236 6.704C72.6196 6.944 72.5516 7.236 72.5196 7.58H74.7036ZM72.4956 8.096C72.5116 8.84 72.6956 9.412 73.0476 9.812C73.3996 10.212 73.8636 10.412 74.4396 10.412C74.8236 10.412 75.1436 10.332 75.3996 10.172C75.6556 10.012 75.8916 9.804 76.1076 9.548L76.3956 9.776C76.1876 10.208 75.8876 10.552 75.4956 10.808C75.1116 11.056 74.6436 11.18 74.0916 11.18C73.6836 11.18 73.3156 11.112 72.9876 10.976C72.6596 10.84 72.3796 10.644 72.1476 10.388C71.9156 10.124 71.7356 9.808 71.6076 9.44C71.4796 9.072 71.4156 8.66 71.4156 8.204C71.4156 7.748 71.4876 7.332 71.6316 6.956C71.7756 6.572 71.9716 6.244 72.2196 5.972C72.4756 5.7 72.7716 5.488 73.1076 5.336C73.4436 5.184 73.7996 5.108 74.1756 5.108C74.4876 5.108 74.7796 5.16 75.0516 5.264C75.3316 5.368 75.5716 5.52 75.7716 5.72C75.9716 5.92 76.1276 6.164 76.2396 6.452C76.3596 6.74 76.4196 7.064 76.4196 7.424C76.4196 7.56 76.4116 7.684 76.3956 7.796C76.3796 7.908 76.3596 8.008 76.3356 8.096H72.4956ZM79.3688 6.632C79.5767 6.152 79.8327 5.78 80.1367 5.516C80.4488 5.244 80.7688 5.108 81.0968 5.108C81.2728 5.108 81.4408 5.156 81.6008 5.252C81.7688 5.34 81.8728 5.488 81.9128 5.696C81.9128 5.896 81.8448 6.056 81.7088 6.176C81.5727 6.288 81.4007 6.344 81.1927 6.344C80.9448 6.344 80.7168 6.244 80.5087 6.044L80.4247 5.96C80.1767 6.144 79.9688 6.364 79.8008 6.62C79.6328 6.868 79.4928 7.172 79.3808 7.532V8.48C79.3808 8.744 79.3808 9.052 79.3808 9.404C79.3888 9.756 79.3968 10.084 79.4047 10.388L80.3887 10.568V11H77.4848V10.568L78.3488 10.412C78.3567 10.108 78.3607 9.78 78.3607 9.428C78.3687 9.068 78.3727 8.752 78.3727 8.48V7.868C78.3727 7.54 78.3687 7.268 78.3607 7.052C78.3528 6.836 78.3448 6.608 78.3368 6.368L77.3888 6.26V5.84L79.0567 5.108L79.2367 5.228L79.3688 6.632Z" transform="translate(165 20)" fill="black"/>
<circle cx="5" cy="5" r="4.5" transform="translate(7 1)" stroke="#E5E5E5"/>
<path d="M3.552 6.712V7H0.592V6.712L1.712 6.52C1.71733 6.31733 1.72 6.11733 1.72 5.92C1.72533 5.71733 1.728 5.51467 1.728 5.312V2.424L0.688 2.512V2.184L2.328 1.768L2.44 1.84L2.408 2.984V5.312C2.408 5.51467 2.408 5.71733 2.408 5.92C2.41333 6.11733 2.41867 6.31733 2.424 6.52L3.552 6.712Z" transform="translate(10 2)" fill="#E5E5E5"/>
<circle cx="5" cy="5" r="4.5" transform="translate(152 22)" stroke="#E5E5E5"/>
<path d="M2.808 3.872H1.56L1.4 4.912H2.648L2.808 3.872ZM3.184 3.872L3.024 4.912H3.752V5.568H2.928L2.704 7H2.328L2.552 5.568H1.296L1.072 7H0.696L0.92 5.568H0.2V4.912H1.024L1.184 3.872H0.448V3.216H1.28L1.504 1.8H1.88L1.656 3.216H2.912L3.128 1.8H3.504L3.288 3.216H4V3.872H3.184Z" transform="translate(155 23)" fill="#E5E5E5"/>
<circle cx="5" cy="5" r="4.5" transform="translate(75 35)" stroke="#E5E5E5"/>
<path d="M3.672 6.336V7H0.392V6.472L1.624 5.208C1.99733 4.824 2.272 4.46667 2.448 4.136C2.62933 3.8 2.72 3.47467 2.72 3.16C2.72 2.82933 2.632 2.568 2.456 2.376C2.28533 2.184 2.05333 2.088 1.76 2.088C1.70667 2.088 1.64533 2.09067 1.576 2.096C1.512 2.10133 1.44 2.112 1.36 2.128L1.216 2.68C1.16267 2.87733 1.10133 3.01867 1.032 3.104C0.962667 3.184 0.872 3.224 0.76 3.224C0.578667 3.224 0.442667 3.136 0.352 2.96C0.373333 2.752 0.429333 2.57067 0.52 2.416C0.616 2.26133 0.736 2.13333 0.88 2.032C1.02933 1.93067 1.19467 1.856 1.376 1.808C1.56267 1.75467 1.75733 1.728 1.96 1.728C2.22133 1.728 2.44533 1.76267 2.632 1.832C2.81867 1.896 2.97067 1.98933 3.088 2.112C3.21067 2.22933 3.29867 2.37067 3.352 2.536C3.41067 2.70133 3.44 2.88267 3.44 3.08C3.44 3.256 3.416 3.42667 3.368 3.592C3.32 3.75733 3.23733 3.93067 3.12 4.112C3.008 4.29333 2.85867 4.488 2.672 4.696C2.48533 4.904 2.25333 5.14133 1.976 5.408L1.008 6.336H3.672Z" transform="translate(78 36)" fill="#E5E5E5"/>
<circle cx="5" cy="5" r="4.5" transform="translate(7 18)" stroke="#E5E5E5"/>
<path d="M1.368 2.536C1.32 2.712 1.264 2.84267 1.2 2.928C1.136 3.01333 1.03467 3.056 0.896 3.056C0.805333 3.056 0.725333 3.03467 0.656 2.992C0.586667 2.944 0.533333 2.86667 0.496 2.76C0.570667 2.408 0.744 2.14933 1.016 1.984C1.288 1.81333 1.608 1.728 1.976 1.728C2.21067 1.728 2.42133 1.76 2.608 1.824C2.8 1.88267 2.96267 1.968 3.096 2.08C3.22933 2.18667 3.33067 2.31733 3.4 2.472C3.47467 2.62667 3.512 2.79733 3.512 2.984C3.512 3.27733 3.42133 3.536 3.24 3.76C3.05867 3.984 2.80533 4.15467 2.48 4.272C2.88533 4.352 3.18667 4.50667 3.384 4.736C3.58133 4.96 3.68 5.24 3.68 5.576C3.68 5.79467 3.63733 5.99733 3.552 6.184C3.46667 6.37067 3.34667 6.53333 3.192 6.672C3.03733 6.81067 2.848 6.92 2.624 7C2.4 7.08 2.152 7.12 1.88 7.12C1.48533 7.12 1.14933 7.032 0.872 6.856C0.594667 6.67467 0.421333 6.384 0.352 5.984C0.442667 5.808 0.578667 5.72 0.76 5.72C0.893333 5.72 0.992 5.76533 1.056 5.856C1.12 5.94133 1.176 6.08533 1.224 6.288L1.336 6.704C1.42133 6.72533 1.50133 6.74133 1.576 6.752C1.65067 6.75733 1.71733 6.76 1.776 6.76C2.176 6.76 2.47467 6.656 2.672 6.448C2.86933 6.24 2.968 5.95467 2.968 5.592C2.968 5.24533 2.86667 4.97333 2.664 4.776C2.46667 4.57867 2.16267 4.48 1.752 4.48H1.36V4.072H1.68C2.04267 4.072 2.32267 3.98133 2.52 3.8C2.72267 3.61333 2.824 3.34933 2.824 3.008C2.824 2.71467 2.73867 2.488 2.568 2.328C2.39733 2.168 2.15467 2.088 1.84 2.088C1.72267 2.088 1.60267 2.09867 1.48 2.12L1.368 2.536Z" transform="translate(10 19)" fill="#E5E5E5"/>
</svg>
