<svg width="856" height="320" viewBox="0 0 856 320" fill="none" xmlns="http://www.w3.org/2000/svg">
<rect width="428" height="160" fill="white" transform="scale(2)"/>
<line y1="-0.5" x2="52" y2="-0.5" transform="translate(124 98) scale(2) rotate(90)" stroke="black"/>
<line y1="-0.5" x2="52" y2="-0.5" transform="translate(404 98) scale(2) rotate(90)" stroke="black"/>
<line y1="-0.5" x2="68" y2="-0.5" transform="translate(134 124) scale(2)" stroke="black"/>
<line y1="-0.5" x2="7" y2="-0.5" transform="translate(134 110) scale(2) rotate(90)" stroke="black"/>
<line y1="-0.5" x2="7" y2="-0.5" transform="translate(270 110) scale(2) rotate(90)" stroke="black"/>
<line y1="-0.5" x2="99" y2="-0.5" transform="translate(134 158) scale(2)" stroke="black"/>
<line y1="-0.5" x2="7" y2="-0.5" transform="translate(134 144) scale(2) rotate(90)" stroke="black"/>
<line y1="-0.5" x2="7" y2="-0.5" transform="translate(332 144) scale(2) rotate(90)" stroke="black"/>
<line y1="-0.5" x2="62" y2="-0.5" transform="translate(270 192) scale(2)" stroke="black"/>
<line y1="-0.5" x2="7" y2="-0.5" transform="translate(270 178) scale(2) rotate(90)" stroke="black"/>
<line y1="-0.5" x2="7" y2="-0.5" transform="translate(394 178) scale(2) rotate(90)" stroke="black"/>
<path d="M140.354 0.353553C140.549 0.158291 140.549 -0.158291 140.354 -0.353553L137.172 -3.53553C136.976 -3.7308 136.66 -3.7308 136.464 -3.53553C136.269 -3.34027 136.269 -3.02369 136.464 -2.82843L139.293 0L136.464 2.82843C136.269 3.02369 136.269 3.34027 136.464 3.53553C136.66 3.7308 136.976 3.7308 137.172 3.53553L140.354 0.353553ZM0 0.5H140V-0.5H0V0.5Z" transform="translate(124 222) scale(2)" fill="#C9C9C9"/>
<path d="M49.3536 0.353553C49.5488 0.158291 49.5488 -0.158291 49.3536 -0.353553L46.1716 -3.53553C45.9763 -3.7308 45.6597 -3.7308 45.4645 -3.53553C45.2692 -3.34027 45.2692 -3.02369 45.4645 -2.82843L48.2929 0L45.4645 2.82843C45.2692 3.02369 45.2692 3.34027 45.4645 3.53553C45.6597 3.7308 45.9763 3.7308 46.1716 3.53553L49.3536 0.353553ZM0 0.5H49V-0.5H0V0.5Z" transform="translate(424 98) scale(2) rotate(90)" fill="#C9C9C9"/>
<path d="M2.82 12.144C2.508 12.144 2.244 12.096 2.028 12C1.82 11.904 1.648 11.772 1.512 11.604C1.384 11.436 1.292 11.232 1.236 10.992C1.18 10.752 1.152 10.488 1.152 10.2V6.972H0.288V6.228L1.2 6.168L1.32 4.536H2.148V6.168H3.72V6.972H2.148V10.212C2.148 10.572 2.212 10.852 2.34 11.052C2.476 11.244 2.712 11.34 3.048 11.34C3.152 11.34 3.264 11.324 3.384 11.292C3.504 11.26 3.612 11.224 3.708 11.184L3.9 11.928C3.74 11.984 3.564 12.032 3.372 12.072C3.188 12.12 3.004 12.144 2.82 12.144ZM5.03869 12V6.168H6.02269V12H5.03869ZM5.54269 4.968C5.35069 4.968 5.18669 4.908 5.05069 4.788C4.92269 4.668 4.85869 4.516 4.85869 4.332C4.85869 4.14 4.92269 3.988 5.05069 3.876C5.18669 3.756 5.35069 3.696 5.54269 3.696C5.73469 3.696 5.89469 3.756 6.02269 3.876C6.15869 3.988 6.22669 4.14 6.22669 4.332C6.22669 4.516 6.15869 4.668 6.02269 4.788C5.89469 4.908 5.73469 4.968 5.54269 4.968ZM7.99181 12V6.168H8.80781L8.89181 7.008H8.92781C9.18381 6.728 9.45981 6.496 9.75581 6.312C10.0598 6.12 10.3878 6.024 10.7398 6.024C11.1878 6.024 11.5358 6.124 11.7838 6.324C12.0398 6.516 12.2278 6.788 12.3478 7.14C12.6518 6.804 12.9558 6.536 13.2598 6.336C13.5718 6.128 13.9078 6.024 14.2678 6.024C14.8678 6.024 15.3118 6.216 15.5998 6.6C15.8958 6.984 16.0438 7.552 16.0438 8.304V12H15.0598V8.436C15.0598 7.884 14.9718 7.488 14.7958 7.248C14.6198 7 14.3478 6.876 13.9798 6.876C13.5398 6.876 13.0518 7.176 12.5158 7.776V12H11.5318V8.436C11.5318 7.884 11.4438 7.488 11.2678 7.248C11.0918 7 10.8158 6.876 10.4398 6.876C9.99981 6.876 9.51181 7.176 8.97581 7.776V12H7.99181ZM20.305 12.144C19.913 12.144 19.545 12.076 19.201 11.94C18.865 11.796 18.569 11.596 18.313 11.34C18.065 11.076 17.869 10.756 17.725 10.38C17.581 10.004 17.509 9.576 17.509 9.096C17.509 8.616 17.581 8.188 17.725 7.812C17.877 7.428 18.073 7.104 18.313 6.84C18.561 6.576 18.841 6.376 19.153 6.24C19.465 6.096 19.789 6.024 20.125 6.024C20.493 6.024 20.821 6.088 21.109 6.216C21.405 6.344 21.649 6.528 21.841 6.768C22.041 7.008 22.193 7.296 22.297 7.632C22.401 7.968 22.453 8.344 22.453 8.76C22.453 8.864 22.449 8.968 22.441 9.072C22.441 9.168 22.433 9.252 22.417 9.324H18.481C18.521 9.948 18.713 10.444 19.057 10.812C19.409 11.172 19.865 11.352 20.425 11.352C20.705 11.352 20.961 11.312 21.193 11.232C21.433 11.144 21.661 11.032 21.877 10.896L22.225 11.544C21.969 11.704 21.685 11.844 21.373 11.964C21.061 12.084 20.705 12.144 20.305 12.144ZM18.469 8.616H21.589C21.589 8.024 21.461 7.576 21.205 7.272C20.957 6.96 20.605 6.804 20.149 6.804C19.941 6.804 19.741 6.844 19.549 6.924C19.365 7.004 19.197 7.124 19.045 7.284C18.893 7.436 18.765 7.624 18.661 7.848C18.565 8.072 18.501 8.328 18.469 8.616Z" transform="translate(236 222) scale(2)" fill="#C9C9C9"/>
<path d="M3.252 12.144C2.892 12.144 2.548 12.076 2.22 11.94C1.9 11.804 1.616 11.608 1.368 11.352C1.12 11.088 0.92 10.768 0.768 10.392C0.624 10.008 0.552 9.576 0.552 9.096C0.552 8.608 0.624 8.176 0.768 7.8C0.92 7.416 1.12 7.092 1.368 6.828C1.616 6.564 1.9 6.364 2.22 6.228C2.548 6.092 2.892 6.024 3.252 6.024C3.612 6.024 3.952 6.092 4.272 6.228C4.6 6.364 4.888 6.564 5.136 6.828C5.384 7.092 5.58 7.416 5.724 7.8C5.876 8.176 5.952 8.608 5.952 9.096C5.952 9.576 5.876 10.008 5.724 10.392C5.58 10.768 5.384 11.088 5.136 11.352C4.888 11.608 4.6 11.804 4.272 11.94C3.952 12.076 3.612 12.144 3.252 12.144ZM3.252 11.328C3.5 11.328 3.728 11.276 3.936 11.172C4.144 11.06 4.32 10.908 4.464 10.716C4.616 10.516 4.732 10.28 4.812 10.008C4.892 9.736 4.932 9.432 4.932 9.096C4.932 8.76 4.892 8.456 4.812 8.184C4.732 7.904 4.616 7.664 4.464 7.464C4.32 7.264 4.144 7.112 3.936 7.008C3.728 6.896 3.5 6.84 3.252 6.84C3.004 6.84 2.776 6.896 2.568 7.008C2.36 7.112 2.18 7.264 2.028 7.464C1.884 7.664 1.772 7.904 1.692 8.184C1.612 8.456 1.572 8.76 1.572 9.096C1.572 9.432 1.612 9.736 1.692 10.008C1.772 10.28 1.884 10.516 2.028 10.716C2.18 10.908 2.36 11.06 2.568 11.172C2.776 11.276 3.004 11.328 3.252 11.328ZM7.48791 12V6.168H8.30391L8.38791 7.224H8.42391C8.62391 6.856 8.86391 6.564 9.14391 6.348C9.43191 6.132 9.74391 6.024 10.0799 6.024C10.3119 6.024 10.5199 6.064 10.7039 6.144L10.5119 7.008C10.4159 6.976 10.3279 6.952 10.2479 6.936C10.1679 6.92 10.0679 6.912 9.94791 6.912C9.69991 6.912 9.43991 7.012 9.16791 7.212C8.90391 7.412 8.67191 7.76 8.47191 8.256V12H7.48791ZM13.5229 12.144C12.7869 12.144 12.1989 11.88 11.7589 11.352C11.3269 10.824 11.1109 10.072 11.1109 9.096C11.1109 8.624 11.1789 8.2 11.3149 7.824C11.4589 7.44 11.6469 7.116 11.8789 6.852C12.1109 6.588 12.3789 6.384 12.6829 6.24C12.9869 6.096 13.3069 6.024 13.6429 6.024C13.9789 6.024 14.2709 6.084 14.5189 6.204C14.7669 6.324 15.0189 6.488 15.2749 6.696L15.2269 5.7V3.456H16.2229V12H15.4069L15.3229 11.316H15.2869C15.0549 11.54 14.7869 11.736 14.4829 11.904C14.1869 12.064 13.8669 12.144 13.5229 12.144ZM13.7389 11.316C14.0109 11.316 14.2669 11.252 14.5069 11.124C14.7469 10.988 14.9869 10.784 15.2269 10.512V7.464C14.9789 7.24 14.7389 7.084 14.5069 6.996C14.2829 6.9 14.0509 6.852 13.8109 6.852C13.5789 6.852 13.3589 6.908 13.1509 7.02C12.9509 7.124 12.7749 7.276 12.6229 7.476C12.4709 7.668 12.3509 7.9 12.2629 8.172C12.1749 8.444 12.1309 8.748 12.1309 9.084C12.1309 9.788 12.2709 10.336 12.5509 10.728C12.8309 11.12 13.2269 11.316 13.7389 11.316ZM20.5511 12.144C20.1591 12.144 19.7911 12.076 19.4471 11.94C19.1111 11.796 18.8151 11.596 18.5591 11.34C18.3111 11.076 18.1151 10.756 17.9711 10.38C17.8271 10.004 17.7551 9.576 17.7551 9.096C17.7551 8.616 17.8271 8.188 17.9711 7.812C18.1231 7.428 18.3191 7.104 18.5591 6.84C18.8071 6.576 19.0871 6.376 19.3991 6.24C19.7111 6.096 20.0351 6.024 20.3711 6.024C20.7391 6.024 21.0671 6.088 21.3551 6.216C21.6511 6.344 21.8951 6.528 22.0871 6.768C22.2871 7.008 22.4391 7.296 22.5431 7.632C22.6471 7.968 22.6991 8.344 22.6991 8.76C22.6991 8.864 22.6951 8.968 22.6871 9.072C22.6871 9.168 22.6791 9.252 22.6631 9.324H18.7271C18.7671 9.948 18.9591 10.444 19.3031 10.812C19.6551 11.172 20.1111 11.352 20.6711 11.352C20.9511 11.352 21.2071 11.312 21.4391 11.232C21.6791 11.144 21.9071 11.032 22.1231 10.896L22.4711 11.544C22.2151 11.704 21.9311 11.844 21.6191 11.964C21.3071 12.084 20.9511 12.144 20.5511 12.144ZM18.7151 8.616H21.8351C21.8351 8.024 21.7071 7.576 21.4511 7.272C21.2031 6.96 20.8511 6.804 20.3951 6.804C20.1871 6.804 19.9871 6.844 19.7951 6.924C19.6111 7.004 19.4431 7.124 19.2911 7.284C19.1391 7.436 19.0111 7.624 18.9071 7.848C18.8111 8.072 18.7471 8.328 18.7151 8.616ZM24.1403 12V6.168H24.9563L25.0403 7.224H25.0762C25.2763 6.856 25.5163 6.564 25.7962 6.348C26.0843 6.132 26.3963 6.024 26.7323 6.024C26.9642 6.024 27.1722 6.064 27.3562 6.144L27.1642 7.008C27.0682 6.976 26.9803 6.952 26.9003 6.936C26.8202 6.92 26.7202 6.912 26.6003 6.912C26.3523 6.912 26.0923 7.012 25.8203 7.212C25.5562 7.412 25.3242 7.76 25.1243 8.256V12H24.1403Z" transform="translate(436 128) scale(2)" fill="#C9C9C9"/>
<path d="M1.08 12V4.128H2.076V12H1.08ZM4.13634 12V6.168H4.95234L5.03634 7.008H5.07234C5.35234 6.728 5.64434 6.496 5.94834 6.312C6.26034 6.12 6.62034 6.024 7.02834 6.024C7.64434 6.024 8.09234 6.216 8.37234 6.6C8.66034 6.984 8.80434 7.552 8.80434 8.304V12H7.82034V8.436C7.82034 7.884 7.73234 7.488 7.55634 7.248C7.38034 7 7.10034 6.876 6.71634 6.876C6.41234 6.876 6.14434 6.952 5.91234 7.104C5.68034 7.256 5.41634 7.48 5.12034 7.776V12H4.13634ZM12.2228 12.144C11.8068 12.144 11.4108 12.068 11.0348 11.916C10.6588 11.764 10.3308 11.572 10.0508 11.34L10.5428 10.68C10.7988 10.888 11.0588 11.056 11.3228 11.184C11.5948 11.312 11.9068 11.376 12.2588 11.376C12.6428 11.376 12.9308 11.288 13.1228 11.112C13.3148 10.936 13.4108 10.72 13.4108 10.464C13.4108 10.312 13.3708 10.18 13.2908 10.068C13.2108 9.956 13.1068 9.86 12.9788 9.78C12.8588 9.692 12.7188 9.616 12.5588 9.552C12.3988 9.488 12.2388 9.424 12.0788 9.36C11.8708 9.288 11.6628 9.208 11.4548 9.12C11.2468 9.024 11.0588 8.912 10.8908 8.784C10.7308 8.648 10.5988 8.492 10.4948 8.316C10.3908 8.14 10.3388 7.928 10.3388 7.68C10.3388 7.448 10.3828 7.232 10.4708 7.032C10.5668 6.824 10.6988 6.648 10.8668 6.504C11.0428 6.352 11.2548 6.236 11.5028 6.156C11.7508 6.068 12.0308 6.024 12.3428 6.024C12.7108 6.024 13.0468 6.088 13.3508 6.216C13.6628 6.344 13.9308 6.5 14.1548 6.684L13.6868 7.308C13.4868 7.156 13.2788 7.032 13.0628 6.936C12.8468 6.84 12.6108 6.792 12.3548 6.792C11.9868 6.792 11.7148 6.876 11.5388 7.044C11.3708 7.212 11.2868 7.408 11.2868 7.632C11.2868 7.768 11.3228 7.888 11.3948 7.992C11.4668 8.088 11.5628 8.176 11.6828 8.256C11.8028 8.328 11.9388 8.396 12.0908 8.46C12.2508 8.516 12.4148 8.576 12.5828 8.64C12.7908 8.72 12.9988 8.804 13.2068 8.892C13.4228 8.98 13.6148 9.092 13.7828 9.228C13.9508 9.356 14.0868 9.516 14.1908 9.708C14.3028 9.9 14.3588 10.132 14.3588 10.404C14.3588 10.644 14.3108 10.868 14.2148 11.076C14.1268 11.284 13.9908 11.468 13.8068 11.628C13.6308 11.788 13.4068 11.912 13.1348 12C12.8708 12.096 12.5668 12.144 12.2228 12.144ZM18.0902 12.144C17.6982 12.144 17.3302 12.076 16.9862 11.94C16.6502 11.796 16.3542 11.596 16.0982 11.34C15.8502 11.076 15.6542 10.756 15.5102 10.38C15.3662 10.004 15.2942 9.576 15.2942 9.096C15.2942 8.616 15.3662 8.188 15.5102 7.812C15.6622 7.428 15.8582 7.104 16.0982 6.84C16.3462 6.576 16.6262 6.376 16.9382 6.24C17.2502 6.096 17.5742 6.024 17.9102 6.024C18.2782 6.024 18.6062 6.088 18.8942 6.216C19.1902 6.344 19.4342 6.528 19.6262 6.768C19.8262 7.008 19.9782 7.296 20.0822 7.632C20.1862 7.968 20.2382 8.344 20.2382 8.76C20.2382 8.864 20.2342 8.968 20.2262 9.072C20.2262 9.168 20.2182 9.252 20.2022 9.324H16.2662C16.3062 9.948 16.4982 10.444 16.8422 10.812C17.1942 11.172 17.6502 11.352 18.2102 11.352C18.4902 11.352 18.7462 11.312 18.9782 11.232C19.2182 11.144 19.4462 11.032 19.6622 10.896L20.0102 11.544C19.7542 11.704 19.4702 11.844 19.1582 11.964C18.8462 12.084 18.4902 12.144 18.0902 12.144ZM16.2542 8.616H19.3742C19.3742 8.024 19.2462 7.576 18.9902 7.272C18.7422 6.96 18.3902 6.804 17.9342 6.804C17.7262 6.804 17.5262 6.844 17.3342 6.924C17.1502 7.004 16.9822 7.124 16.8302 7.284C16.6782 7.436 16.5502 7.624 16.4462 7.848C16.3502 8.072 16.2862 8.328 16.2542 8.616ZM21.6793 12V6.168H22.4953L22.5793 7.224H22.6153C22.8153 6.856 23.0553 6.564 23.3353 6.348C23.6233 6.132 23.9353 6.024 24.2713 6.024C24.5033 6.024 24.7113 6.064 24.8953 6.144L24.7033 7.008C24.6073 6.976 24.5193 6.952 24.4393 6.936C24.3593 6.92 24.2593 6.912 24.1393 6.912C23.8913 6.912 23.6313 7.012 23.3593 7.212C23.0953 7.412 22.8633 7.76 22.6633 8.256V12H21.6793ZM27.6755 12.144C27.3635 12.144 27.0995 12.096 26.8835 12C26.6755 11.904 26.5035 11.772 26.3675 11.604C26.2395 11.436 26.1475 11.232 26.0915 10.992C26.0355 10.752 26.0075 10.488 26.0075 10.2V6.972H25.1435V6.228L26.0555 6.168L26.1755 4.536H27.0035V6.168H28.5755V6.972H27.0035V10.212C27.0035 10.572 27.0675 10.852 27.1955 11.052C27.3315 11.244 27.5675 11.34 27.9035 11.34C28.0075 11.34 28.1195 11.324 28.2395 11.292C28.3595 11.26 28.4675 11.224 28.5635 11.184L28.7555 11.928C28.5955 11.984 28.4195 12.032 28.2275 12.072C28.0435 12.12 27.8595 12.144 27.6755 12.144ZM29.8942 12V6.168H30.8782V12H29.8942ZM30.3982 4.968C30.2062 4.968 30.0422 4.908 29.9062 4.788C29.7782 4.668 29.7142 4.516 29.7142 4.332C29.7142 4.14 29.7782 3.988 29.9062 3.876C30.0422 3.756 30.2062 3.696 30.3982 3.696C30.5902 3.696 30.7502 3.756 30.8782 3.876C31.0142 3.988 31.0822 4.14 31.0822 4.332C31.0822 4.516 31.0142 4.668 30.8782 4.788C30.7502 4.908 30.5902 4.968 30.3982 4.968ZM35.1153 12.144C34.7553 12.144 34.4113 12.076 34.0833 11.94C33.7633 11.804 33.4793 11.608 33.2313 11.352C32.9833 11.088 32.7833 10.768 32.6313 10.392C32.4873 10.008 32.4153 9.576 32.4153 9.096C32.4153 8.608 32.4873 8.176 32.6313 7.8C32.7833 7.416 32.9833 7.092 33.2313 6.828C33.4793 6.564 33.7633 6.364 34.0833 6.228C34.4113 6.092 34.7553 6.024 35.1153 6.024C35.4753 6.024 35.8153 6.092 36.1353 6.228C36.4633 6.364 36.7513 6.564 36.9993 6.828C37.2473 7.092 37.4433 7.416 37.5873 7.8C37.7393 8.176 37.8153 8.608 37.8153 9.096C37.8153 9.576 37.7393 10.008 37.5873 10.392C37.4433 10.768 37.2473 11.088 36.9993 11.352C36.7513 11.608 36.4633 11.804 36.1353 11.94C35.8153 12.076 35.4753 12.144 35.1153 12.144ZM35.1153 11.328C35.3633 11.328 35.5913 11.276 35.7993 11.172C36.0073 11.06 36.1833 10.908 36.3273 10.716C36.4793 10.516 36.5953 10.28 36.6753 10.008C36.7553 9.736 36.7953 9.432 36.7953 9.096C36.7953 8.76 36.7553 8.456 36.6753 8.184C36.5953 7.904 36.4793 7.664 36.3273 7.464C36.1833 7.264 36.0073 7.112 35.7993 7.008C35.5913 6.896 35.3633 6.84 35.1153 6.84C34.8673 6.84 34.6393 6.896 34.4313 7.008C34.2233 7.112 34.0433 7.264 33.8913 7.464C33.7473 7.664 33.6353 7.904 33.5553 8.184C33.4753 8.456 33.4353 8.76 33.4353 9.096C33.4353 9.432 33.4753 9.736 33.5553 10.008C33.6353 10.28 33.7473 10.516 33.8913 10.716C34.0433 10.908 34.2233 11.06 34.4313 11.172C34.6393 11.276 34.8673 11.328 35.1153 11.328ZM39.3512 12V6.168H40.1672L40.2512 7.008H40.2872C40.5672 6.728 40.8592 6.496 41.1632 6.312C41.4752 6.12 41.8352 6.024 42.2432 6.024C42.8592 6.024 43.3072 6.216 43.5872 6.6C43.8752 6.984 44.0192 7.552 44.0192 8.304V12H43.0352V8.436C43.0352 7.884 42.9472 7.488 42.7712 7.248C42.5952 7 42.3152 6.876 41.9312 6.876C41.6272 6.876 41.3592 6.952 41.1272 7.104C40.8952 7.256 40.6312 7.48 40.3352 7.776V12H39.3512ZM50.584 12.144C50.224 12.144 49.88 12.076 49.552 11.94C49.232 11.804 48.948 11.608 48.7 11.352C48.452 11.088 48.252 10.768 48.1 10.392C47.956 10.008 47.884 9.576 47.884 9.096C47.884 8.608 47.956 8.176 48.1 7.8C48.252 7.416 48.452 7.092 48.7 6.828C48.948 6.564 49.232 6.364 49.552 6.228C49.88 6.092 50.224 6.024 50.584 6.024C50.944 6.024 51.284 6.092 51.604 6.228C51.932 6.364 52.22 6.564 52.468 6.828C52.716 7.092 52.912 7.416 53.056 7.8C53.208 8.176 53.284 8.608 53.284 9.096C53.284 9.576 53.208 10.008 53.056 10.392C52.912 10.768 52.716 11.088 52.468 11.352C52.22 11.608 51.932 11.804 51.604 11.94C51.284 12.076 50.944 12.144 50.584 12.144ZM50.584 11.328C50.832 11.328 51.06 11.276 51.268 11.172C51.476 11.06 51.652 10.908 51.796 10.716C51.948 10.516 52.064 10.28 52.144 10.008C52.224 9.736 52.264 9.432 52.264 9.096C52.264 8.76 52.224 8.456 52.144 8.184C52.064 7.904 51.948 7.664 51.796 7.464C51.652 7.264 51.476 7.112 51.268 7.008C51.06 6.896 50.832 6.84 50.584 6.84C50.336 6.84 50.108 6.896 49.9 7.008C49.692 7.112 49.512 7.264 49.36 7.464C49.216 7.664 49.104 7.904 49.024 8.184C48.944 8.456 48.904 8.76 48.904 9.096C48.904 9.432 48.944 9.736 49.024 10.008C49.104 10.28 49.216 10.516 49.36 10.716C49.512 10.908 49.692 11.06 49.9 11.172C50.108 11.276 50.336 11.328 50.584 11.328ZM54.8199 12V6.168H55.6359L55.7199 7.224H55.7559C55.9559 6.856 56.1959 6.564 56.4759 6.348C56.7639 6.132 57.0759 6.024 57.4119 6.024C57.6439 6.024 57.8519 6.064 58.0359 6.144L57.8439 7.008C57.7479 6.976 57.6599 6.952 57.5799 6.936C57.4999 6.92 57.3999 6.912 57.2799 6.912C57.0319 6.912 56.7719 7.012 56.4999 7.212C56.2359 7.412 56.0039 7.76 55.8039 8.256V12H54.8199ZM60.8549 12.144C60.1189 12.144 59.5309 11.88 59.0909 11.352C58.6589 10.824 58.4429 10.072 58.4429 9.096C58.4429 8.624 58.5109 8.2 58.6469 7.824C58.7909 7.44 58.9789 7.116 59.2109 6.852C59.4429 6.588 59.7109 6.384 60.0149 6.24C60.3189 6.096 60.6389 6.024 60.9749 6.024C61.3109 6.024 61.6029 6.084 61.8509 6.204C62.0989 6.324 62.3509 6.488 62.6069 6.696L62.5589 5.7V3.456H63.5549V12H62.7389L62.6549 11.316H62.6189C62.3869 11.54 62.1189 11.736 61.8149 11.904C61.5189 12.064 61.1989 12.144 60.8549 12.144ZM61.0709 11.316C61.3429 11.316 61.5989 11.252 61.8389 11.124C62.0789 10.988 62.3189 10.784 62.5589 10.512V7.464C62.3109 7.24 62.0709 7.084 61.8389 6.996C61.6149 6.9 61.3829 6.852 61.1429 6.852C60.9109 6.852 60.6909 6.908 60.4829 7.02C60.2829 7.124 60.1069 7.276 59.9549 7.476C59.8029 7.668 59.6829 7.9 59.5949 8.172C59.5069 8.444 59.4629 8.748 59.4629 9.084C59.4629 9.788 59.6029 10.336 59.8829 10.728C60.1629 11.12 60.5589 11.316 61.0709 11.316ZM67.8832 12.144C67.4912 12.144 67.1232 12.076 66.7792 11.94C66.4432 11.796 66.1472 11.596 65.8912 11.34C65.6432 11.076 65.4472 10.756 65.3032 10.38C65.1592 10.004 65.0872 9.576 65.0872 9.096C65.0872 8.616 65.1592 8.188 65.3032 7.812C65.4552 7.428 65.6512 7.104 65.8912 6.84C66.1392 6.576 66.4192 6.376 66.7312 6.24C67.0432 6.096 67.3672 6.024 67.7032 6.024C68.0712 6.024 68.3992 6.088 68.6872 6.216C68.9832 6.344 69.2272 6.528 69.4192 6.768C69.6192 7.008 69.7712 7.296 69.8752 7.632C69.9792 7.968 70.0312 8.344 70.0312 8.76C70.0312 8.864 70.0272 8.968 70.0192 9.072C70.0192 9.168 70.0112 9.252 69.9952 9.324H66.0592C66.0992 9.948 66.2912 10.444 66.6352 10.812C66.9872 11.172 67.4432 11.352 68.0032 11.352C68.2832 11.352 68.5392 11.312 68.7712 11.232C69.0112 11.144 69.2392 11.032 69.4552 10.896L69.8032 11.544C69.5472 11.704 69.2632 11.844 68.9512 11.964C68.6392 12.084 68.2832 12.144 67.8832 12.144ZM66.0472 8.616H69.1672C69.1672 8.024 69.0392 7.576 68.7832 7.272C68.5352 6.96 68.1832 6.804 67.7272 6.804C67.5192 6.804 67.3192 6.844 67.1272 6.924C66.9432 7.004 66.7752 7.124 66.6232 7.284C66.4712 7.436 66.3432 7.624 66.2392 7.848C66.1432 8.072 66.0792 8.328 66.0472 8.616ZM71.4723 12V6.168H72.2883L72.3723 7.224H72.4083C72.6083 6.856 72.8483 6.564 73.1283 6.348C73.4163 6.132 73.7283 6.024 74.0643 6.024C74.2963 6.024 74.5043 6.064 74.6883 6.144L74.4963 7.008C74.4003 6.976 74.3123 6.952 74.2323 6.936C74.1523 6.92 74.0523 6.912 73.9323 6.912C73.6843 6.912 73.4243 7.012 73.1523 7.212C72.8883 7.412 72.6563 7.76 72.4563 8.256V12H71.4723Z" transform="translate(596 92) scale(2)" fill="black"/>
<circle cx="5.5" cy="5.5" r="5" transform="translate(138 96) scale(2)" stroke="#E5E5E5"/>
<path d="M0.632 8V7.456H1.8V3.696H0.872V3.272C1.10667 3.22933 1.30933 3.17867 1.48 3.12C1.656 3.056 1.81333 2.98133 1.952 2.896H2.456V7.456H3.512V8H0.632Z" transform="translate(146 96) scale(2)" fill="#E5E5E5"/>
<circle cx="5.5" cy="5.5" r="5" transform="translate(558 98) scale(2)" stroke="#E5E5E5"/>
<path d="M0.72 8L0.92 6.368H0.28V5.912H0.976L1.12 4.728H0.44V4.264H1.176L1.36 2.8H1.784L1.6 4.264H2.664L2.856 2.8H3.28L3.088 4.264H3.736V4.728H3.04L2.896 5.912H3.576V6.368H2.84L2.64 8H2.216L2.408 6.368H1.352L1.152 8H0.72ZM1.408 5.912H2.464L2.608 4.728H1.552L1.408 5.912Z" transform="translate(566 98) scale(2)" fill="#E5E5E5"/>
<circle cx="5.5" cy="5.5" r="5" transform="translate(278 164) scale(2)" stroke="#E5E5E5"/>
<path d="M0.32 8V7.608C0.704 7.224 1.04533 6.87733 1.344 6.568C1.64267 6.25867 1.89333 5.97333 2.096 5.712C2.29867 5.44533 2.45333 5.20267 2.56 4.984C2.66667 4.76 2.72 4.544 2.72 4.336C2.72 4.04267 2.64 3.80267 2.48 3.616C2.32 3.42933 2.07733 3.336 1.752 3.336C1.53867 3.336 1.34133 3.39733 1.16 3.52C0.978667 3.63733 0.813333 3.78133 0.664 3.952L0.288 3.576C0.501333 3.34133 0.728 3.15467 0.968 3.016C1.208 2.872 1.496 2.8 1.832 2.8C2.30667 2.8 2.68 2.93867 2.952 3.216C3.224 3.488 3.36 3.85067 3.36 4.304C3.36 4.544 3.30667 4.78667 3.2 5.032C3.09867 5.272 2.95467 5.52267 2.768 5.784C2.58667 6.04 2.368 6.30933 2.112 6.592C1.86133 6.86933 1.584 7.16533 1.28 7.48C1.41867 7.46933 1.56267 7.45867 1.712 7.448C1.86133 7.43733 2.00267 7.432 2.136 7.432H3.616V8H0.32Z" transform="translate(286 164) scale(2)" fill="#E5E5E5"/>
<circle cx="5.5" cy="5.5" r="5" transform="translate(140 132) scale(2)" stroke="#E5E5E5"/>
<path d="M1.888 8.096C1.68533 8.096 1.49867 8.07467 1.328 8.032C1.16267 7.99467 1.01067 7.944 0.872 7.88C0.733333 7.81067 0.608 7.73333 0.496 7.648C0.389333 7.56267 0.293333 7.472 0.208 7.376L0.544 6.944C0.698667 7.104 0.877333 7.24533 1.08 7.368C1.288 7.49067 1.544 7.552 1.848 7.552C2.15733 7.552 2.41067 7.46933 2.608 7.304C2.80533 7.13333 2.904 6.904 2.904 6.616C2.904 6.46667 2.87467 6.33067 2.816 6.208C2.76267 6.08 2.672 5.97067 2.544 5.88C2.416 5.78933 2.248 5.72 2.04 5.672C1.832 5.624 1.576 5.6 1.272 5.6V5.096C1.544 5.096 1.77067 5.072 1.952 5.024C2.13867 4.976 2.288 4.90933 2.4 4.824C2.51733 4.73867 2.6 4.63733 2.648 4.52C2.696 4.40267 2.72 4.27733 2.72 4.144C2.72 3.89333 2.64 3.696 2.48 3.552C2.32533 3.408 2.112 3.336 1.84 3.336C1.62667 3.336 1.42933 3.384 1.248 3.48C1.072 3.576 0.906667 3.70133 0.752 3.856L0.4 3.44C0.597333 3.25333 0.813333 3.10133 1.048 2.984C1.288 2.86133 1.56 2.8 1.864 2.8C2.088 2.8 2.29333 2.82933 2.48 2.888C2.66667 2.94667 2.82667 3.032 2.96 3.144C3.09867 3.25067 3.20533 3.384 3.28 3.544C3.35467 3.704 3.392 3.888 3.392 4.096C3.392 4.40533 3.30667 4.65867 3.136 4.856C2.96533 5.05333 2.74133 5.20533 2.464 5.312V5.344C2.61867 5.38133 2.76267 5.43733 2.896 5.512C3.02933 5.58133 3.14667 5.672 3.248 5.784C3.34933 5.89067 3.42667 6.016 3.48 6.16C3.53867 6.304 3.568 6.464 3.568 6.64C3.568 6.864 3.52267 7.06667 3.432 7.248C3.34667 7.42933 3.22667 7.584 3.072 7.712C2.92267 7.83467 2.74667 7.93067 2.544 8C2.34133 8.064 2.12267 8.096 1.888 8.096Z" transform="translate(148 132) scale(2)" fill="#E5E5E5"/>
</svg>
