<svg width="305" height="122" viewBox="0 0 305 122" fill="none" xmlns="http://www.w3.org/2000/svg">
<rect width="305" height="122" fill="white"/>
<line y1="-0.5" x2="54" y2="-0.5" transform="translate(5 44) rotate(90)" stroke="#E5E5E5" stroke-dasharray="2 2"/>
<line y1="-0.5" x2="64" y2="-0.5" transform="translate(135 30) rotate(90)" stroke="#E5E5E5" stroke-dasharray="2 2"/>
<line y1="-0.5" x2="52" y2="-0.5" transform="rotate(90)" stroke="black"/>
<line y1="-0.5" x2="52" y2="-0.5" transform="translate(140) rotate(90)" stroke="black"/>
<line y1="-0.5" x2="52" y2="-0.5" transform="translate(0 69) rotate(90)" stroke="black"/>
<line y1="-0.5" x2="52" y2="-0.5" transform="translate(140 69) rotate(90)" stroke="black"/>
<line y1="-0.5" x2="68" y2="-0.5" transform="translate(5 13)" stroke="black"/>
<line y1="-0.5" x2="7" y2="-0.5" transform="translate(5 6) rotate(90)" stroke="black"/>
<line y1="-0.5" x2="7" y2="-0.5" transform="translate(73 6) rotate(90)" stroke="black"/>
<line y1="-0.5" x2="99" y2="-0.5" transform="translate(5 47)" stroke="black"/>
<line y1="-0.5" x2="7" y2="-0.5" transform="translate(5 40) rotate(90)" stroke="black"/>
<line y1="-0.5" x2="7" y2="-0.5" transform="translate(104 40) rotate(90)" stroke="black"/>
<line y1="-0.5" x2="130" y2="-0.5" transform="translate(5 98)" stroke="black"/>
<line y1="-0.5" x2="7" y2="-0.5" transform="translate(5 91) rotate(90)" stroke="black"/>
<line y1="-0.5" x2="7" y2="-0.5" transform="translate(135 91) rotate(90)" stroke="black"/>
<line y1="-0.5" x2="62" y2="-0.5" transform="translate(73 30)" stroke="black"/>
<line y1="-0.5" x2="7" y2="-0.5" transform="translate(73 23) rotate(90)" stroke="black"/>
<line y1="-0.5" x2="7" y2="-0.5" transform="translate(135 23) rotate(90)" stroke="black"/>
<path d="M4.896 7.82L3.72 4.352L2.52 7.82H4.896ZM7.848 10.508V11H4.584V10.508L5.76 10.364L5.088 8.384H2.328L1.656 10.352L2.82 10.508V11H0.06V10.508L1.08 10.352L3.648 2.972H4.368L6.948 10.4L7.848 10.508ZM10.3688 6.632C10.5767 6.152 10.8327 5.78 11.1367 5.516C11.4488 5.244 11.7688 5.108 12.0968 5.108C12.2728 5.108 12.4408 5.156 12.6008 5.252C12.7688 5.34 12.8728 5.488 12.9128 5.696C12.9128 5.896 12.8448 6.056 12.7088 6.176C12.5727 6.288 12.4007 6.344 12.1927 6.344C11.9448 6.344 11.7168 6.244 11.5087 6.044L11.4247 5.96C11.1767 6.144 10.9688 6.364 10.8008 6.62C10.6328 6.868 10.4928 7.172 10.3808 7.532V8.48C10.3808 8.744 10.3808 9.052 10.3808 9.404C10.3888 9.756 10.3968 10.084 10.4047 10.388L11.3887 10.568V11H8.48475V10.568L9.34875 10.412C9.35675 10.108 9.36075 9.78 9.36075 9.428C9.36875 9.068 9.37275 8.752 9.37275 8.48V7.868C9.37275 7.54 9.36875 7.268 9.36075 7.052C9.35275 6.836 9.34475 6.608 9.33675 6.368L8.38875 6.26V5.84L10.0567 5.108L10.2367 5.228L10.3688 6.632ZM15.443 6.632C15.651 6.152 15.907 5.78 16.211 5.516C16.523 5.244 16.843 5.108 17.171 5.108C17.347 5.108 17.515 5.156 17.675 5.252C17.843 5.34 17.947 5.488 17.987 5.696C17.987 5.896 17.919 6.056 17.783 6.176C17.647 6.288 17.475 6.344 17.267 6.344C17.019 6.344 16.791 6.244 16.583 6.044L16.499 5.96C16.251 6.144 16.043 6.364 15.875 6.62C15.707 6.868 15.567 7.172 15.455 7.532V8.48C15.455 8.744 15.455 9.052 15.455 9.404C15.463 9.756 15.471 10.084 15.479 10.388L16.463 10.568V11H13.559V10.568L14.423 10.412C14.431 10.108 14.435 9.78 14.435 9.428C14.443 9.068 14.447 8.752 14.447 8.48V7.868C14.447 7.54 14.443 7.268 14.435 7.052C14.427 6.836 14.419 6.608 14.411 6.368L13.463 6.26V5.84L15.131 5.108L15.311 5.228L15.443 6.632ZM21.8646 7.892C21.6566 7.948 21.4526 8.008 21.2526 8.072C21.0606 8.136 20.9006 8.192 20.7726 8.24C20.5086 8.344 20.2966 8.452 20.1366 8.564C19.9846 8.668 19.8686 8.772 19.7886 8.876C19.7086 8.98 19.6566 9.084 19.6326 9.188C19.6086 9.292 19.5966 9.388 19.5966 9.476C19.5966 9.636 19.6166 9.764 19.6566 9.86C19.7046 9.956 19.7606 10.04 19.8246 10.112C20.0086 10.296 20.2526 10.388 20.5566 10.388C20.6526 10.388 20.7446 10.38 20.8326 10.364C20.9206 10.34 21.0126 10.304 21.1086 10.256C21.2046 10.2 21.3126 10.132 21.4326 10.052C21.5526 9.964 21.6966 9.86 21.8646 9.74V7.892ZM24.0246 10.484C23.8886 10.74 23.7406 10.912 23.5806 11C23.4206 11.08 23.2446 11.12 23.0526 11.12C22.7166 11.12 22.4526 11.04 22.2606 10.88C22.0686 10.712 21.9446 10.492 21.8886 10.22C21.7286 10.38 21.5806 10.52 21.4446 10.64C21.3086 10.76 21.1726 10.86 21.0366 10.94C20.9006 11.02 20.7606 11.08 20.6166 11.12C20.4726 11.16 20.3126 11.18 20.1366 11.18C19.9206 11.18 19.7126 11.148 19.5126 11.084C19.3206 11.02 19.1486 10.924 18.9966 10.796C18.8526 10.668 18.7366 10.512 18.6486 10.328C18.5686 10.136 18.5286 9.916 18.5286 9.668C18.5286 9.5 18.5566 9.336 18.6126 9.176C18.6686 9.016 18.7686 8.864 18.9126 8.72C19.0566 8.568 19.2566 8.42 19.5126 8.276C19.7766 8.124 20.1126 7.976 20.5206 7.832C20.7046 7.768 20.9126 7.704 21.1446 7.64C21.3846 7.568 21.6246 7.5 21.8646 7.436V7.112C21.8646 6.824 21.8406 6.588 21.7926 6.404C21.7526 6.212 21.6886 6.064 21.6006 5.96C21.5126 5.848 21.3966 5.772 21.2526 5.732C21.1166 5.684 20.9486 5.66 20.7486 5.66C20.6606 5.66 20.5646 5.664 20.4606 5.672C20.3646 5.68 20.2566 5.696 20.1366 5.72L19.8966 6.56C19.7846 6.944 19.5686 7.136 19.2486 7.136C19.0806 7.136 18.9486 7.092 18.8526 7.004C18.7566 6.908 18.7006 6.78 18.6846 6.62C18.7966 6.164 19.0606 5.8 19.4766 5.528C19.8926 5.248 20.4086 5.108 21.0246 5.108C21.6566 5.108 22.1246 5.268 22.4286 5.588C22.7326 5.908 22.8846 6.452 22.8846 7.22V9.788C22.8846 10.26 23.0166 10.496 23.2806 10.496C23.3766 10.496 23.4606 10.476 23.5326 10.436C23.6046 10.388 23.6686 10.34 23.7246 10.292L23.7846 10.22L24.0246 10.484ZM29.9526 5.816L29.2806 5.96L27.4806 10.952C27.2886 11.48 27.0966 11.936 26.9046 12.32C26.7206 12.704 26.5286 13.016 26.3286 13.256C26.1366 13.504 25.9326 13.684 25.7166 13.796C25.5086 13.916 25.2806 13.976 25.0326 13.976C24.7286 13.976 24.4686 13.9 24.2526 13.748C24.0366 13.604 23.9286 13.412 23.9286 13.172C23.9686 13.004 24.0646 12.876 24.2166 12.788C24.3686 12.708 24.5366 12.668 24.7206 12.668C24.8806 12.668 25.0246 12.7 25.1526 12.764C25.2886 12.836 25.4486 12.96 25.6326 13.136L25.6686 13.172C25.9246 12.956 26.1406 12.692 26.3166 12.38C26.4926 12.068 26.6566 11.716 26.8086 11.324L24.6486 5.924L23.9526 5.816V5.324H26.8446V5.828L25.8006 5.948L27.2886 9.944L28.6446 5.96L27.6126 5.816V5.324H29.9526V5.816ZM31.8703 6.836C31.6303 6.836 31.4263 6.752 31.2583 6.584C31.0983 6.416 31.0183 6.216 31.0183 5.984C31.0183 5.744 31.0983 5.54 31.2583 5.372C31.4263 5.204 31.6303 5.12 31.8703 5.12C32.1103 5.12 32.3103 5.204 32.4703 5.372C32.6383 5.54 32.7223 5.744 32.7223 5.984C32.7223 6.216 32.6383 6.416 32.4703 6.584C32.3103 6.752 32.1103 6.836 31.8703 6.836ZM31.8703 11.18C31.6303 11.18 31.4263 11.096 31.2583 10.928C31.0983 10.76 31.0183 10.56 31.0183 10.328C31.0183 10.088 31.0983 9.884 31.2583 9.716C31.4263 9.548 31.6303 9.464 31.8703 9.464C32.1103 9.464 32.3103 9.548 32.4703 9.716C32.6383 9.884 32.7223 10.088 32.7223 10.328C32.7223 10.56 32.6383 10.76 32.4703 10.928C32.3103 11.096 32.1103 11.18 31.8703 11.18ZM41.3647 7.82L40.1888 4.352L38.9887 7.82H41.3647ZM44.3167 10.508V11H41.0527V10.508L42.2287 10.364L41.5567 8.384H38.7968L38.1247 10.352L39.2887 10.508V11H36.5287V10.508L37.5488 10.352L40.1167 2.972H40.8367L43.4167 10.4L44.3167 10.508ZM50.7797 10.568V11L49.1117 11.12L48.9797 10.052C48.6517 10.452 48.3077 10.74 47.9477 10.916C47.5877 11.092 47.2237 11.18 46.8557 11.18C46.6157 11.18 46.3957 11.14 46.1957 11.06C46.0037 10.988 45.8397 10.868 45.7037 10.7C45.5677 10.524 45.4637 10.3 45.3917 10.028C45.3277 9.756 45.2957 9.42 45.2957 9.02L45.3317 5.996L44.4797 5.816V5.396L46.2437 5.228L46.3637 5.348L46.3037 7.028V8.888C46.3037 9.424 46.3797 9.8 46.5317 10.016C46.6917 10.224 46.9357 10.328 47.2637 10.328C47.8237 10.328 48.3837 10.068 48.9437 9.548L48.9797 5.996L48.1277 5.816V5.396L49.8677 5.228L49.9877 5.348L49.9517 7.028V10.388L50.7797 10.568ZM55.714 6.416C55.442 6.184 55.198 6.024 54.982 5.936C54.766 5.84 54.558 5.792 54.358 5.792C54.134 5.792 53.922 5.84 53.722 5.936C53.522 6.032 53.346 6.18 53.194 6.38C53.042 6.572 52.922 6.816 52.834 7.112C52.746 7.408 52.702 7.76 52.702 8.168C52.702 8.568 52.742 8.916 52.822 9.212C52.91 9.5 53.026 9.74 53.17 9.932C53.322 10.124 53.498 10.268 53.698 10.364C53.898 10.452 54.118 10.496 54.358 10.496C54.614 10.496 54.846 10.444 55.054 10.34C55.27 10.228 55.49 10.052 55.714 9.812V6.416ZM57.706 10.568V11L55.834 11.12L55.75 10.316C55.542 10.596 55.306 10.812 55.042 10.964C54.778 11.108 54.454 11.18 54.07 11.18C53.702 11.18 53.366 11.108 53.062 10.964C52.766 10.82 52.51 10.616 52.294 10.352C52.078 10.088 51.91 9.776 51.79 9.416C51.678 9.048 51.622 8.644 51.622 8.204C51.622 7.748 51.686 7.332 51.814 6.956C51.942 6.572 52.118 6.244 52.342 5.972C52.574 5.7 52.846 5.488 53.158 5.336C53.47 5.184 53.81 5.108 54.178 5.108C54.466 5.108 54.738 5.168 54.994 5.288C55.25 5.4 55.502 5.6 55.75 5.888V3.332L54.73 3.212V2.792L56.614 2.252L56.782 2.348L56.734 4.052V10.412L57.706 10.568ZM59.7266 3.824C59.4946 3.824 59.3026 3.752 59.1506 3.608C58.9986 3.464 58.9226 3.276 58.9226 3.044C58.9226 2.812 58.9986 2.628 59.1506 2.492C59.3026 2.348 59.4946 2.276 59.7266 2.276C59.9586 2.276 60.1506 2.348 60.3026 2.492C60.4546 2.628 60.5306 2.812 60.5306 3.044C60.5306 3.276 60.4546 3.464 60.3026 3.608C60.1506 3.752 59.9586 3.824 59.7266 3.824ZM61.0946 10.568V11H58.3106V10.568L59.2106 10.4C59.2186 10.096 59.2226 9.768 59.2226 9.416C59.2306 9.056 59.2346 8.744 59.2346 8.48V7.88C59.2346 7.552 59.2306 7.28 59.2226 7.064C59.2146 6.84 59.2066 6.608 59.1986 6.368L58.2506 6.26V5.84L60.0986 5.108L60.2786 5.228L60.2426 6.86V8.48C60.2426 8.744 60.2426 9.056 60.2426 9.416C60.2506 9.768 60.2586 10.096 60.2666 10.4L61.0946 10.568ZM65.3408 10.484C65.1888 10.684 64.9888 10.84 64.7408 10.952C64.5008 11.064 64.2288 11.12 63.9248 11.12C63.5008 11.12 63.1648 11.012 62.9168 10.796C62.6768 10.572 62.5568 10.224 62.5568 9.752C62.5568 9.6 62.5568 9.452 62.5568 9.308C62.5648 9.156 62.5688 8.964 62.5688 8.732V5.96H61.5728V5.432L62.6408 5.3L62.9408 3.668H63.6728L63.6128 5.324H65.2208V5.96H63.5888V9.608C63.5888 9.92 63.6448 10.148 63.7568 10.292C63.8768 10.428 64.0408 10.496 64.2488 10.496C64.4888 10.496 64.7568 10.384 65.0528 10.16L65.3408 10.484ZM68.4749 7.676C69.0829 7.9 69.5069 8.16 69.7469 8.456C69.9949 8.744 70.1189 9.076 70.1189 9.452C70.1189 9.676 70.0709 9.892 69.9749 10.1C69.8789 10.308 69.7309 10.492 69.5309 10.652C69.3389 10.812 69.0949 10.94 68.7989 11.036C68.5109 11.132 68.1749 11.18 67.7909 11.18C67.4469 11.18 67.1349 11.14 66.8549 11.06C66.5829 10.988 66.2949 10.872 65.9909 10.712L65.9549 9.404H66.6149L66.8429 10.436C67.1229 10.564 67.4469 10.628 67.8149 10.628C68.2709 10.628 68.6109 10.544 68.8349 10.376C69.0589 10.208 69.1709 9.984 69.1709 9.704C69.1709 9.448 69.0749 9.244 68.8829 9.092C68.6989 8.94 68.4149 8.792 68.0309 8.648L67.4789 8.444C67.0389 8.284 66.6869 8.076 66.4229 7.82C66.1589 7.556 66.0269 7.232 66.0269 6.848C66.0269 6.616 66.0749 6.396 66.1709 6.188C66.2749 5.98 66.4149 5.796 66.5909 5.636C66.7749 5.476 66.9949 5.348 67.2509 5.252C67.5149 5.156 67.8069 5.108 68.1269 5.108C68.4549 5.108 68.7509 5.152 69.0149 5.24C69.2789 5.32 69.5429 5.44 69.8069 5.6L69.7589 6.824H69.1349L68.9549 5.864C68.6669 5.728 68.3869 5.66 68.1149 5.66C67.7469 5.66 67.4669 5.74 67.2749 5.9C67.0909 6.052 66.9989 6.264 66.9989 6.536C66.9989 6.776 67.0789 6.968 67.2389 7.112C67.4069 7.248 67.6989 7.392 68.1149 7.544L68.4749 7.676Z" transform="translate(165 21)" fill="black"/>
<path d="M4.896 7.82L3.72 4.352L2.52 7.82H4.896ZM7.848 10.508V11H4.584V10.508L5.76 10.364L5.088 8.384H2.328L1.656 10.352L2.82 10.508V11H0.06V10.508L1.08 10.352L3.648 2.972H4.368L6.948 10.4L7.848 10.508ZM10.3688 6.632C10.5767 6.152 10.8327 5.78 11.1367 5.516C11.4488 5.244 11.7688 5.108 12.0968 5.108C12.2728 5.108 12.4408 5.156 12.6008 5.252C12.7688 5.34 12.8728 5.488 12.9128 5.696C12.9128 5.896 12.8448 6.056 12.7088 6.176C12.5727 6.288 12.4007 6.344 12.1927 6.344C11.9448 6.344 11.7168 6.244 11.5087 6.044L11.4247 5.96C11.1767 6.144 10.9688 6.364 10.8008 6.62C10.6328 6.868 10.4928 7.172 10.3808 7.532V8.48C10.3808 8.744 10.3808 9.052 10.3808 9.404C10.3888 9.756 10.3968 10.084 10.4047 10.388L11.3887 10.568V11H8.48475V10.568L9.34875 10.412C9.35675 10.108 9.36075 9.78 9.36075 9.428C9.36875 9.068 9.37275 8.752 9.37275 8.48V7.868C9.37275 7.54 9.36875 7.268 9.36075 7.052C9.35275 6.836 9.34475 6.608 9.33675 6.368L8.38875 6.26V5.84L10.0567 5.108L10.2367 5.228L10.3688 6.632ZM15.443 6.632C15.651 6.152 15.907 5.78 16.211 5.516C16.523 5.244 16.843 5.108 17.171 5.108C17.347 5.108 17.515 5.156 17.675 5.252C17.843 5.34 17.947 5.488 17.987 5.696C17.987 5.896 17.919 6.056 17.783 6.176C17.647 6.288 17.475 6.344 17.267 6.344C17.019 6.344 16.791 6.244 16.583 6.044L16.499 5.96C16.251 6.144 16.043 6.364 15.875 6.62C15.707 6.868 15.567 7.172 15.455 7.532V8.48C15.455 8.744 15.455 9.052 15.455 9.404C15.463 9.756 15.471 10.084 15.479 10.388L16.463 10.568V11H13.559V10.568L14.423 10.412C14.431 10.108 14.435 9.78 14.435 9.428C14.443 9.068 14.447 8.752 14.447 8.48V7.868C14.447 7.54 14.443 7.268 14.435 7.052C14.427 6.836 14.419 6.608 14.411 6.368L13.463 6.26V5.84L15.131 5.108L15.311 5.228L15.443 6.632ZM21.8646 7.892C21.6566 7.948 21.4526 8.008 21.2526 8.072C21.0606 8.136 20.9006 8.192 20.7726 8.24C20.5086 8.344 20.2966 8.452 20.1366 8.564C19.9846 8.668 19.8686 8.772 19.7886 8.876C19.7086 8.98 19.6566 9.084 19.6326 9.188C19.6086 9.292 19.5966 9.388 19.5966 9.476C19.5966 9.636 19.6166 9.764 19.6566 9.86C19.7046 9.956 19.7606 10.04 19.8246 10.112C20.0086 10.296 20.2526 10.388 20.5566 10.388C20.6526 10.388 20.7446 10.38 20.8326 10.364C20.9206 10.34 21.0126 10.304 21.1086 10.256C21.2046 10.2 21.3126 10.132 21.4326 10.052C21.5526 9.964 21.6966 9.86 21.8646 9.74V7.892ZM24.0246 10.484C23.8886 10.74 23.7406 10.912 23.5806 11C23.4206 11.08 23.2446 11.12 23.0526 11.12C22.7166 11.12 22.4526 11.04 22.2606 10.88C22.0686 10.712 21.9446 10.492 21.8886 10.22C21.7286 10.38 21.5806 10.52 21.4446 10.64C21.3086 10.76 21.1726 10.86 21.0366 10.94C20.9006 11.02 20.7606 11.08 20.6166 11.12C20.4726 11.16 20.3126 11.18 20.1366 11.18C19.9206 11.18 19.7126 11.148 19.5126 11.084C19.3206 11.02 19.1486 10.924 18.9966 10.796C18.8526 10.668 18.7366 10.512 18.6486 10.328C18.5686 10.136 18.5286 9.916 18.5286 9.668C18.5286 9.5 18.5566 9.336 18.6126 9.176C18.6686 9.016 18.7686 8.864 18.9126 8.72C19.0566 8.568 19.2566 8.42 19.5126 8.276C19.7766 8.124 20.1126 7.976 20.5206 7.832C20.7046 7.768 20.9126 7.704 21.1446 7.64C21.3846 7.568 21.6246 7.5 21.8646 7.436V7.112C21.8646 6.824 21.8406 6.588 21.7926 6.404C21.7526 6.212 21.6886 6.064 21.6006 5.96C21.5126 5.848 21.3966 5.772 21.2526 5.732C21.1166 5.684 20.9486 5.66 20.7486 5.66C20.6606 5.66 20.5646 5.664 20.4606 5.672C20.3646 5.68 20.2566 5.696 20.1366 5.72L19.8966 6.56C19.7846 6.944 19.5686 7.136 19.2486 7.136C19.0806 7.136 18.9486 7.092 18.8526 7.004C18.7566 6.908 18.7006 6.78 18.6846 6.62C18.7966 6.164 19.0606 5.8 19.4766 5.528C19.8926 5.248 20.4086 5.108 21.0246 5.108C21.6566 5.108 22.1246 5.268 22.4286 5.588C22.7326 5.908 22.8846 6.452 22.8846 7.22V9.788C22.8846 10.26 23.0166 10.496 23.2806 10.496C23.3766 10.496 23.4606 10.476 23.5326 10.436C23.6046 10.388 23.6686 10.34 23.7246 10.292L23.7846 10.22L24.0246 10.484ZM29.9526 5.816L29.2806 5.96L27.4806 10.952C27.2886 11.48 27.0966 11.936 26.9046 12.32C26.7206 12.704 26.5286 13.016 26.3286 13.256C26.1366 13.504 25.9326 13.684 25.7166 13.796C25.5086 13.916 25.2806 13.976 25.0326 13.976C24.7286 13.976 24.4686 13.9 24.2526 13.748C24.0366 13.604 23.9286 13.412 23.9286 13.172C23.9686 13.004 24.0646 12.876 24.2166 12.788C24.3686 12.708 24.5366 12.668 24.7206 12.668C24.8806 12.668 25.0246 12.7 25.1526 12.764C25.2886 12.836 25.4486 12.96 25.6326 13.136L25.6686 13.172C25.9246 12.956 26.1406 12.692 26.3166 12.38C26.4926 12.068 26.6566 11.716 26.8086 11.324L24.6486 5.924L23.9526 5.816V5.324H26.8446V5.828L25.8006 5.948L27.2886 9.944L28.6446 5.96L27.6126 5.816V5.324H29.9526V5.816ZM31.8703 6.836C31.6303 6.836 31.4263 6.752 31.2583 6.584C31.0983 6.416 31.0183 6.216 31.0183 5.984C31.0183 5.744 31.0983 5.54 31.2583 5.372C31.4263 5.204 31.6303 5.12 31.8703 5.12C32.1103 5.12 32.3103 5.204 32.4703 5.372C32.6383 5.54 32.7223 5.744 32.7223 5.984C32.7223 6.216 32.6383 6.416 32.4703 6.584C32.3103 6.752 32.1103 6.836 31.8703 6.836ZM31.8703 11.18C31.6303 11.18 31.4263 11.096 31.2583 10.928C31.0983 10.76 31.0183 10.56 31.0183 10.328C31.0183 10.088 31.0983 9.884 31.2583 9.716C31.4263 9.548 31.6303 9.464 31.8703 9.464C32.1103 9.464 32.3103 9.548 32.4703 9.716C32.6383 9.884 32.7223 10.088 32.7223 10.328C32.7223 10.56 32.6383 10.76 32.4703 10.928C32.3103 11.096 32.1103 11.18 31.8703 11.18ZM41.3647 7.82L40.1888 4.352L38.9887 7.82H41.3647ZM44.3167 10.508V11H41.0527V10.508L42.2287 10.364L41.5567 8.384H38.7968L38.1247 10.352L39.2887 10.508V11H36.5287V10.508L37.5488 10.352L40.1167 2.972H40.8367L43.4167 10.4L44.3167 10.508ZM50.7797 10.568V11L49.1117 11.12L48.9797 10.052C48.6517 10.452 48.3077 10.74 47.9477 10.916C47.5877 11.092 47.2237 11.18 46.8557 11.18C46.6157 11.18 46.3957 11.14 46.1957 11.06C46.0037 10.988 45.8397 10.868 45.7037 10.7C45.5677 10.524 45.4637 10.3 45.3917 10.028C45.3277 9.756 45.2957 9.42 45.2957 9.02L45.3317 5.996L44.4797 5.816V5.396L46.2437 5.228L46.3637 5.348L46.3037 7.028V8.888C46.3037 9.424 46.3797 9.8 46.5317 10.016C46.6917 10.224 46.9357 10.328 47.2637 10.328C47.8237 10.328 48.3837 10.068 48.9437 9.548L48.9797 5.996L48.1277 5.816V5.396L49.8677 5.228L49.9877 5.348L49.9517 7.028V10.388L50.7797 10.568ZM55.714 6.416C55.442 6.184 55.198 6.024 54.982 5.936C54.766 5.84 54.558 5.792 54.358 5.792C54.134 5.792 53.922 5.84 53.722 5.936C53.522 6.032 53.346 6.18 53.194 6.38C53.042 6.572 52.922 6.816 52.834 7.112C52.746 7.408 52.702 7.76 52.702 8.168C52.702 8.568 52.742 8.916 52.822 9.212C52.91 9.5 53.026 9.74 53.17 9.932C53.322 10.124 53.498 10.268 53.698 10.364C53.898 10.452 54.118 10.496 54.358 10.496C54.614 10.496 54.846 10.444 55.054 10.34C55.27 10.228 55.49 10.052 55.714 9.812V6.416ZM57.706 10.568V11L55.834 11.12L55.75 10.316C55.542 10.596 55.306 10.812 55.042 10.964C54.778 11.108 54.454 11.18 54.07 11.18C53.702 11.18 53.366 11.108 53.062 10.964C52.766 10.82 52.51 10.616 52.294 10.352C52.078 10.088 51.91 9.776 51.79 9.416C51.678 9.048 51.622 8.644 51.622 8.204C51.622 7.748 51.686 7.332 51.814 6.956C51.942 6.572 52.118 6.244 52.342 5.972C52.574 5.7 52.846 5.488 53.158 5.336C53.47 5.184 53.81 5.108 54.178 5.108C54.466 5.108 54.738 5.168 54.994 5.288C55.25 5.4 55.502 5.6 55.75 5.888V3.332L54.73 3.212V2.792L56.614 2.252L56.782 2.348L56.734 4.052V10.412L57.706 10.568ZM59.7266 3.824C59.4946 3.824 59.3026 3.752 59.1506 3.608C58.9986 3.464 58.9226 3.276 58.9226 3.044C58.9226 2.812 58.9986 2.628 59.1506 2.492C59.3026 2.348 59.4946 2.276 59.7266 2.276C59.9586 2.276 60.1506 2.348 60.3026 2.492C60.4546 2.628 60.5306 2.812 60.5306 3.044C60.5306 3.276 60.4546 3.464 60.3026 3.608C60.1506 3.752 59.9586 3.824 59.7266 3.824ZM61.0946 10.568V11H58.3106V10.568L59.2106 10.4C59.2186 10.096 59.2226 9.768 59.2226 9.416C59.2306 9.056 59.2346 8.744 59.2346 8.48V7.88C59.2346 7.552 59.2306 7.28 59.2226 7.064C59.2146 6.84 59.2066 6.608 59.1986 6.368L58.2506 6.26V5.84L60.0986 5.108L60.2786 5.228L60.2426 6.86V8.48C60.2426 8.744 60.2426 9.056 60.2426 9.416C60.2506 9.768 60.2586 10.096 60.2666 10.4L61.0946 10.568ZM65.3408 10.484C65.1888 10.684 64.9888 10.84 64.7408 10.952C64.5008 11.064 64.2288 11.12 63.9248 11.12C63.5008 11.12 63.1648 11.012 62.9168 10.796C62.6768 10.572 62.5568 10.224 62.5568 9.752C62.5568 9.6 62.5568 9.452 62.5568 9.308C62.5648 9.156 62.5688 8.964 62.5688 8.732V5.96H61.5728V5.432L62.6408 5.3L62.9408 3.668H63.6728L63.6128 5.324H65.2208V5.96H63.5888V9.608C63.5888 9.92 63.6448 10.148 63.7568 10.292C63.8768 10.428 64.0408 10.496 64.2488 10.496C64.4888 10.496 64.7568 10.384 65.0528 10.16L65.3408 10.484ZM69.2309 7.58C69.5189 7.58 69.7109 7.52 69.8069 7.4C69.9029 7.28 69.9509 7.132 69.9509 6.956C69.9509 6.788 69.9149 6.628 69.8429 6.476C69.7789 6.316 69.6869 6.176 69.5669 6.056C69.4549 5.936 69.3189 5.84 69.1589 5.768C69.0069 5.696 68.8389 5.66 68.6549 5.66C68.4869 5.66 68.3109 5.696 68.1269 5.768C67.9509 5.832 67.7869 5.944 67.6349 6.104C67.4909 6.256 67.3629 6.456 67.2509 6.704C67.1469 6.944 67.0789 7.236 67.0469 7.58H69.2309ZM67.0229 8.096C67.0389 8.84 67.2229 9.412 67.5749 9.812C67.9269 10.212 68.3909 10.412 68.9669 10.412C69.3509 10.412 69.6709 10.332 69.9269 10.172C70.1829 10.012 70.4189 9.804 70.6349 9.548L70.9229 9.776C70.7149 10.208 70.4149 10.552 70.0229 10.808C69.6389 11.056 69.1709 11.18 68.6189 11.18C68.2109 11.18 67.8429 11.112 67.5149 10.976C67.1869 10.84 66.9069 10.644 66.6749 10.388C66.4429 10.124 66.2629 9.808 66.1349 9.44C66.0069 9.072 65.9429 8.66 65.9429 8.204C65.9429 7.748 66.0149 7.332 66.1589 6.956C66.3029 6.572 66.4989 6.244 66.7469 5.972C67.0029 5.7 67.2989 5.488 67.6349 5.336C67.9709 5.184 68.3269 5.108 68.7029 5.108C69.0149 5.108 69.3069 5.16 69.5789 5.264C69.8589 5.368 70.0989 5.52 70.2989 5.72C70.4989 5.92 70.6549 6.164 70.7669 6.452C70.8869 6.74 70.9469 7.064 70.9469 7.424C70.9469 7.56 70.9389 7.684 70.9229 7.796C70.9069 7.908 70.8869 8.008 70.8629 8.096H67.0229ZM76.1281 6.416C75.8561 6.184 75.6121 6.024 75.3961 5.936C75.1801 5.84 74.9721 5.792 74.7721 5.792C74.5481 5.792 74.3361 5.84 74.1361 5.936C73.9361 6.032 73.7601 6.18 73.6081 6.38C73.4561 6.572 73.3361 6.816 73.2481 7.112C73.1601 7.408 73.1161 7.76 73.1161 8.168C73.1161 8.568 73.1561 8.916 73.2361 9.212C73.3241 9.5 73.4401 9.74 73.5841 9.932C73.7361 10.124 73.9121 10.268 74.1121 10.364C74.3121 10.452 74.5321 10.496 74.7721 10.496C75.0281 10.496 75.2601 10.444 75.4681 10.34C75.6841 10.228 75.9041 10.052 76.1281 9.812V6.416ZM78.1201 10.568V11L76.2481 11.12L76.1641 10.316C75.9561 10.596 75.7201 10.812 75.4561 10.964C75.1921 11.108 74.8681 11.18 74.4841 11.18C74.1161 11.18 73.7801 11.108 73.4761 10.964C73.1801 10.82 72.9241 10.616 72.7081 10.352C72.4921 10.088 72.3241 9.776 72.2041 9.416C72.0921 9.048 72.0361 8.644 72.0361 8.204C72.0361 7.748 72.1001 7.332 72.2281 6.956C72.3561 6.572 72.5321 6.244 72.7561 5.972C72.9881 5.7 73.2601 5.488 73.5721 5.336C73.8841 5.184 74.2241 5.108 74.5921 5.108C74.8801 5.108 75.1521 5.168 75.4081 5.288C75.6641 5.4 75.9161 5.6 76.1641 5.888V3.332L75.1441 3.212V2.792L77.0281 2.252L77.1961 2.348L77.1481 4.052V10.412L78.1201 10.568ZM85.1068 3.584C85.0908 4.096 85.0828 4.612 85.0828 5.132C85.0828 5.644 85.0828 6.164 85.0828 6.692V7.28C85.0828 7.8 85.0828 8.316 85.0828 8.828C85.0828 9.34 85.0908 9.856 85.1068 10.376L86.3308 10.508V11H82.6948V10.508L83.9188 10.376C83.9348 9.872 83.9428 9.364 83.9428 8.852C83.9428 8.332 83.9428 7.808 83.9428 7.28V6.692C83.9428 6.172 83.9428 5.656 83.9428 5.144C83.9428 4.624 83.9348 4.104 83.9188 3.584H82.0828L81.8188 5.12H81.1228L81.2188 2.972H87.8188L87.9028 5.12H87.2188L86.9428 3.584H85.1068ZM89.9844 3.824C89.7524 3.824 89.5604 3.752 89.4084 3.608C89.2564 3.464 89.1804 3.276 89.1804 3.044C89.1804 2.812 89.2564 2.628 89.4084 2.492C89.5604 2.348 89.7524 2.276 89.9844 2.276C90.2164 2.276 90.4084 2.348 90.5604 2.492C90.7124 2.628 90.7884 2.812 90.7884 3.044C90.7884 3.276 90.7124 3.464 90.5604 3.608C90.4084 3.752 90.2164 3.824 89.9844 3.824ZM91.3524 10.568V11H88.5684V10.568L89.4684 10.4C89.4764 10.096 89.4804 9.768 89.4804 9.416C89.4884 9.056 89.4924 8.744 89.4924 8.48V7.88C89.4924 7.552 89.4884 7.28 89.4804 7.064C89.4724 6.84 89.4644 6.608 89.4564 6.368L88.5084 6.26V5.84L90.3564 5.108L90.5364 5.228L90.5004 6.86V8.48C90.5004 8.744 90.5004 9.056 90.5004 9.416C90.5084 9.768 90.5164 10.096 90.5244 10.4L91.3524 10.568ZM102.199 10.568V11H99.4147V10.568L100.303 10.4C100.311 10.104 100.315 9.78 100.315 9.428C100.323 9.076 100.327 8.76 100.327 8.48V7.4C100.327 6.848 100.247 6.472 100.087 6.272C99.9267 6.064 99.6747 5.96 99.3307 5.96C99.0747 5.96 98.8147 6.02 98.5507 6.14C98.2947 6.26 98.0147 6.46 97.7107 6.74C97.7187 6.828 97.7227 6.92 97.7227 7.016C97.7307 7.112 97.7347 7.216 97.7347 7.328V8.48C97.7347 8.76 97.7347 9.076 97.7347 9.428C97.7427 9.772 97.7507 10.096 97.7587 10.4L98.5987 10.568V11H95.8147V10.568L96.7027 10.4C96.7107 10.104 96.7147 9.78 96.7147 9.428C96.7227 9.076 96.7267 8.76 96.7267 8.48V7.424C96.7267 6.88 96.6467 6.5 96.4867 6.284C96.3347 6.068 96.0867 5.96 95.7427 5.96C95.4627 5.96 95.1987 6.024 94.9507 6.152C94.7107 6.272 94.4387 6.46 94.1347 6.716V8.48C94.1347 8.744 94.1347 9.056 94.1347 9.416C94.1427 9.768 94.1507 10.096 94.1587 10.4L94.9987 10.568V11H92.2147V10.568L93.1027 10.4C93.1107 10.096 93.1147 9.768 93.1147 9.416C93.1227 9.064 93.1267 8.752 93.1267 8.48V7.868C93.1267 7.54 93.1227 7.268 93.1147 7.052C93.1067 6.836 93.0987 6.608 93.0907 6.368L92.1427 6.26V5.84L93.8107 5.108L93.9907 5.228L94.0867 6.2C94.3747 5.872 94.7027 5.608 95.0707 5.408C95.4387 5.208 95.8147 5.108 96.1987 5.108C96.5827 5.108 96.8907 5.196 97.1227 5.372C97.3547 5.548 97.5187 5.836 97.6147 6.236C97.9267 5.852 98.2707 5.568 98.6467 5.384C99.0227 5.2 99.4067 5.108 99.7987 5.108C100.287 5.108 100.663 5.272 100.927 5.6C101.199 5.928 101.335 6.464 101.335 7.208V8.48C101.335 8.76 101.335 9.076 101.335 9.428C101.343 9.772 101.351 10.096 101.359 10.4L102.199 10.568ZM106.403 7.58C106.691 7.58 106.883 7.52 106.979 7.4C107.075 7.28 107.123 7.132 107.123 6.956C107.123 6.788 107.087 6.628 107.015 6.476C106.951 6.316 106.859 6.176 106.739 6.056C106.627 5.936 106.491 5.84 106.331 5.768C106.179 5.696 106.011 5.66 105.827 5.66C105.659 5.66 105.483 5.696 105.299 5.768C105.123 5.832 104.959 5.944 104.807 6.104C104.663 6.256 104.535 6.456 104.423 6.704C104.319 6.944 104.251 7.236 104.219 7.58H106.403ZM104.195 8.096C104.211 8.84 104.395 9.412 104.747 9.812C105.099 10.212 105.563 10.412 106.139 10.412C106.523 10.412 106.843 10.332 107.099 10.172C107.355 10.012 107.591 9.804 107.807 9.548L108.095 9.776C107.887 10.208 107.587 10.552 107.195 10.808C106.811 11.056 106.343 11.18 105.791 11.18C105.383 11.18 105.015 11.112 104.687 10.976C104.359 10.84 104.079 10.644 103.847 10.388C103.615 10.124 103.435 9.808 103.307 9.44C103.179 9.072 103.115 8.66 103.115 8.204C103.115 7.748 103.187 7.332 103.331 6.956C103.475 6.572 103.671 6.244 103.919 5.972C104.175 5.7 104.471 5.488 104.807 5.336C105.143 5.184 105.499 5.108 105.875 5.108C106.187 5.108 106.479 5.16 106.751 5.264C107.031 5.368 107.271 5.52 107.471 5.72C107.671 5.92 107.827 6.164 107.939 6.452C108.059 6.74 108.119 7.064 108.119 7.424C108.119 7.56 108.111 7.684 108.095 7.796C108.079 7.908 108.059 8.008 108.035 8.096H104.195ZM111.764 7.676C112.372 7.9 112.796 8.16 113.036 8.456C113.284 8.744 113.408 9.076 113.408 9.452C113.408 9.676 113.36 9.892 113.264 10.1C113.168 10.308 113.02 10.492 112.82 10.652C112.628 10.812 112.384 10.94 112.088 11.036C111.8 11.132 111.464 11.18 111.08 11.18C110.736 11.18 110.424 11.14 110.144 11.06C109.872 10.988 109.584 10.872 109.28 10.712L109.244 9.404H109.904L110.132 10.436C110.412 10.564 110.736 10.628 111.104 10.628C111.56 10.628 111.9 10.544 112.124 10.376C112.348 10.208 112.46 9.984 112.46 9.704C112.46 9.448 112.364 9.244 112.172 9.092C111.988 8.94 111.704 8.792 111.32 8.648L110.768 8.444C110.328 8.284 109.976 8.076 109.712 7.82C109.448 7.556 109.316 7.232 109.316 6.848C109.316 6.616 109.364 6.396 109.46 6.188C109.564 5.98 109.704 5.796 109.88 5.636C110.064 5.476 110.284 5.348 110.54 5.252C110.804 5.156 111.096 5.108 111.416 5.108C111.744 5.108 112.04 5.152 112.304 5.24C112.568 5.32 112.832 5.44 113.096 5.6L113.048 6.824H112.424L112.244 5.864C111.956 5.728 111.676 5.66 111.404 5.66C111.036 5.66 110.756 5.74 110.564 5.9C110.38 6.052 110.288 6.264 110.288 6.536C110.288 6.776 110.368 6.968 110.528 7.112C110.696 7.248 110.988 7.392 111.404 7.544L111.764 7.676ZM116.19 9.884C116.63 10.292 117.074 10.496 117.522 10.496C117.746 10.496 117.954 10.448 118.146 10.352C118.346 10.256 118.518 10.112 118.662 9.92C118.814 9.728 118.93 9.488 119.01 9.2C119.098 8.912 119.142 8.576 119.142 8.192C119.142 7.416 119.002 6.824 118.722 6.416C118.442 6 118.082 5.792 117.642 5.792C117.458 5.792 117.246 5.84 117.006 5.936C116.766 6.024 116.494 6.196 116.19 6.452V9.884ZM116.118 6.008C116.67 5.408 117.274 5.108 117.93 5.108C118.25 5.108 118.55 5.176 118.83 5.312C119.11 5.448 119.35 5.648 119.55 5.912C119.758 6.168 119.922 6.48 120.042 6.848C120.162 7.216 120.222 7.632 120.222 8.096C120.222 8.56 120.158 8.984 120.03 9.368C119.91 9.744 119.738 10.068 119.514 10.34C119.298 10.604 119.038 10.812 118.734 10.964C118.43 11.108 118.102 11.18 117.75 11.18C117.47 11.18 117.198 11.124 116.934 11.012C116.67 10.9 116.41 10.696 116.154 10.4V11.336C116.154 11.648 116.154 11.964 116.154 12.284C116.162 12.612 116.17 12.936 116.178 13.256L117.27 13.436V13.856H114.186V13.436L115.146 13.268C115.154 12.94 115.158 12.616 115.158 12.296C115.166 11.976 115.17 11.656 115.17 11.336V7.868C115.17 7.54 115.166 7.268 115.158 7.052C115.15 6.836 115.142 6.608 115.134 6.368L114.198 6.26V5.84L115.866 5.108L116.046 5.228L116.118 6.008ZM124.65 7.892C124.442 7.948 124.238 8.008 124.038 8.072C123.846 8.136 123.686 8.192 123.558 8.24C123.294 8.344 123.082 8.452 122.922 8.564C122.77 8.668 122.654 8.772 122.574 8.876C122.494 8.98 122.442 9.084 122.418 9.188C122.394 9.292 122.382 9.388 122.382 9.476C122.382 9.636 122.402 9.764 122.442 9.86C122.49 9.956 122.546 10.04 122.61 10.112C122.794 10.296 123.038 10.388 123.342 10.388C123.438 10.388 123.53 10.38 123.618 10.364C123.706 10.34 123.798 10.304 123.894 10.256C123.99 10.2 124.098 10.132 124.218 10.052C124.338 9.964 124.482 9.86 124.65 9.74V7.892ZM126.81 10.484C126.674 10.74 126.526 10.912 126.366 11C126.206 11.08 126.03 11.12 125.838 11.12C125.502 11.12 125.238 11.04 125.046 10.88C124.854 10.712 124.73 10.492 124.674 10.22C124.514 10.38 124.366 10.52 124.23 10.64C124.094 10.76 123.958 10.86 123.822 10.94C123.686 11.02 123.546 11.08 123.402 11.12C123.258 11.16 123.098 11.18 122.922 11.18C122.706 11.18 122.498 11.148 122.298 11.084C122.106 11.02 121.934 10.924 121.782 10.796C121.638 10.668 121.522 10.512 121.434 10.328C121.354 10.136 121.314 9.916 121.314 9.668C121.314 9.5 121.342 9.336 121.398 9.176C121.454 9.016 121.554 8.864 121.698 8.72C121.842 8.568 122.042 8.42 122.298 8.276C122.562 8.124 122.898 7.976 123.306 7.832C123.49 7.768 123.698 7.704 123.93 7.64C124.17 7.568 124.41 7.5 124.65 7.436V7.112C124.65 6.824 124.626 6.588 124.578 6.404C124.538 6.212 124.474 6.064 124.386 5.96C124.298 5.848 124.182 5.772 124.038 5.732C123.902 5.684 123.734 5.66 123.534 5.66C123.446 5.66 123.35 5.664 123.246 5.672C123.15 5.68 123.042 5.696 122.922 5.72L122.682 6.56C122.57 6.944 122.354 7.136 122.034 7.136C121.866 7.136 121.734 7.092 121.638 7.004C121.542 6.908 121.486 6.78 121.47 6.62C121.582 6.164 121.846 5.8 122.262 5.528C122.678 5.248 123.194 5.108 123.81 5.108C124.442 5.108 124.91 5.268 125.214 5.588C125.518 5.908 125.67 6.452 125.67 7.22V9.788C125.67 10.26 125.802 10.496 126.066 10.496C126.162 10.496 126.246 10.476 126.318 10.436C126.39 10.388 126.454 10.34 126.51 10.292L126.57 10.22L126.81 10.484ZM133.744 10.568V11H130.96V10.568L131.848 10.4C131.856 10.104 131.86 9.78 131.86 9.428C131.868 9.076 131.872 8.76 131.872 8.48V7.424C131.872 6.88 131.796 6.5 131.644 6.284C131.492 6.068 131.24 5.96 130.888 5.96C130.608 5.96 130.336 6.02 130.072 6.14C129.816 6.26 129.536 6.452 129.232 6.716V8.48C129.232 8.744 129.232 9.056 129.232 9.416C129.24 9.768 129.248 10.096 129.256 10.4L130.096 10.568V11H127.312V10.568L128.2 10.4C128.208 10.096 128.212 9.768 128.212 9.416C128.22 9.064 128.224 8.752 128.224 8.48V7.868C128.224 7.54 128.22 7.268 128.212 7.052C128.204 6.836 128.196 6.608 128.188 6.368L127.24 6.26V5.84L128.908 5.108L129.088 5.228L129.184 6.2C129.48 5.872 129.816 5.608 130.192 5.408C130.576 5.208 130.96 5.108 131.344 5.108C131.864 5.108 132.248 5.28 132.496 5.624C132.752 5.968 132.88 6.536 132.88 7.328V8.48C132.88 8.76 132.88 9.076 132.88 9.428C132.888 9.772 132.896 10.096 132.904 10.4L133.744 10.568ZM137.205 7.676C137.813 7.9 138.237 8.16 138.477 8.456C138.725 8.744 138.849 9.076 138.849 9.452C138.849 9.676 138.801 9.892 138.705 10.1C138.609 10.308 138.461 10.492 138.261 10.652C138.069 10.812 137.825 10.94 137.529 11.036C137.241 11.132 136.905 11.18 136.521 11.18C136.177 11.18 135.865 11.14 135.585 11.06C135.313 10.988 135.025 10.872 134.721 10.712L134.685 9.404H135.345L135.573 10.436C135.853 10.564 136.177 10.628 136.545 10.628C137.001 10.628 137.341 10.544 137.565 10.376C137.789 10.208 137.901 9.984 137.901 9.704C137.901 9.448 137.805 9.244 137.613 9.092C137.429 8.94 137.145 8.792 136.761 8.648L136.209 8.444C135.769 8.284 135.417 8.076 135.153 7.82C134.889 7.556 134.757 7.232 134.757 6.848C134.757 6.616 134.805 6.396 134.901 6.188C135.005 5.98 135.145 5.796 135.321 5.636C135.505 5.476 135.725 5.348 135.981 5.252C136.245 5.156 136.537 5.108 136.857 5.108C137.185 5.108 137.481 5.152 137.745 5.24C138.009 5.32 138.273 5.44 138.537 5.6L138.489 6.824H137.865L137.685 5.864C137.397 5.728 137.117 5.66 136.845 5.66C136.477 5.66 136.197 5.74 136.005 5.9C135.821 6.052 135.729 6.264 135.729 6.536C135.729 6.776 135.809 6.968 135.969 7.112C136.137 7.248 136.429 7.392 136.845 7.544L137.205 7.676Z" transform="translate(165 94)" fill="black"/>
</svg>
