<?xml version="1.0" encoding="utf-8"?>
<!-- Generator: Adobe Illustrator 22.0.0, SVG Export Plug-In . SVG Version: 6.00 Build 0)  -->
<svg version="1.1" id="Layer_1" xmlns="http://www.w3.org/2000/svg" xmlns:xlink="http://www.w3.org/1999/xlink" x="0px" y="0px"
	 viewBox="0 0 1170 537" style="enable-background:new 0 0 1170 537;" xml:space="preserve">
<style type="text/css">
	.st0{fill:#F8F8F8;}
	.st1{fill:#171717;}
	.st2{font-family:'SourceSerifPro-Light';}
	.st3{font-size:30px;}
	.st4{fill:#C9C9C9;}
	.st5{fill:none;stroke:#D8D8D8;}
	.st6{fill:#4A4A4A;}
	.st7{font-family:'SourceSerifPro-Regular';}
	.st8{font-size:14px;}
</style>
<g id="Modules" transform="translate(0 -34)">
	<rect id="Base" y="371" class="st0" width="1170" height="200"/>
	<text transform="matrix(1 0 0 1 113 482.0002)" class="st1 st2 st3">Modules</text>
	<g id="_01" transform="translate(-3)">
		<g id="Arrow" transform="translate(1745.669 10081.405) rotate(180)">
			<rect id="Rectangle_16" x="1336" y="9682" class="st4" width="2" height="176"/>
			<g id="Group_46" transform="translate(966.694 4990.264) rotate(90)">
				<path id="Path_85" class="st4" d="M4871.1-370.3l-6.7-4.6c-0.1,0-0.2,0-0.3,0c-0.1,0-0.1,0.1-0.1,0.2v9.2c0,0.1,0,0.2,0.1,0.2
					c0,0,0.1,0,0.1,0c0,0,0.1,0,0.1,0l6.7-4.6c0.1,0,0.1-0.1,0.1-0.2C4871.1-370.2,4871.1-370.3,4871.1-370.3L4871.1-370.3z"/>
			</g>
		</g>
	</g>
	<g id="_02">
		<g id="Arrow-5" transform="translate(1921.669 10186.405) rotate(180)">
			<rect id="Rectangle_16-2" x="1336" y="9787" class="st4" width="2" height="72"/>
			<g id="Group_46-2" transform="translate(966.694 4994.264) rotate(90)">
				<path id="Path_85-2" class="st4" d="M4871.1-370.3l-6.7-4.6c-0.1,0-0.2,0-0.3,0c-0.1,0-0.1,0.1-0.1,0.2v9.2c0,0.1,0,0.2,0.1,0.2
					c0,0,0.1,0,0.1,0c0,0,0.1,0,0.1,0l6.7-4.6c0.1,0,0.1-0.1,0.1-0.2C4871.1-370.2,4871.1-370.3,4871.1-370.3L4871.1-370.3z"/>
			</g>
		</g>
	</g>
	<g id="_03" transform="translate(355)">
		<g id="Arrow-6" transform="translate(1745.669 10081.405) rotate(180)">
			<rect id="Rectangle_16-3" x="1336" y="9682" class="st4" width="2" height="176"/>
			<g id="Group_46-3" transform="translate(966.694 4990.264) rotate(90)">
				<path id="Path_85-3" class="st4" d="M4871.1-370.3l-6.7-4.6c-0.1,0-0.2,0-0.3,0c-0.1,0-0.1,0.1-0.1,0.2v9.2c0,0.1,0,0.2,0.1,0.2
					c0,0,0.1,0,0.1,0c0,0,0.1,0,0.1,0l6.7-4.6c0.1,0,0.1-0.1,0.1-0.2C4871.1-370.2,4871.1-370.3,4871.1-370.3L4871.1-370.3z"/>
			</g>
		</g>
	</g>
</g>
<g id="Investment_Manager" transform="translate(0 -5)">
	<g id="Arrow-7" transform="translate(-1 -29)">
		<rect id="Rectangle_16-4" x="586" y="34" class="st1" width="2" height="90"/>
		<g id="Group_46-4" transform="translate(966.694 4990.264) rotate(90)">
			<path id="Path_85-4" class="st1" d="M-4862.9,379.7l-6.7-4.6c-0.1,0-0.2,0-0.3,0c-0.1,0-0.1,0.1-0.1,0.2v9.2c0,0.1,0,0.2,0.1,0.2
				c0,0,0.1,0,0.1,0c0,0,0.1,0,0.1,0l6.7-4.6c0.1,0,0.1-0.1,0.1-0.2C-4862.9,379.8-4862.9,379.7-4862.9,379.7L-4862.9,379.7z"/>
		</g>
	</g>
</g>
<g id="Investors" transform="translate(164 82)">
	<g id="Action" transform="translate(1 -8)">
		<g id="Base-5" transform="translate(561 4908)">
			<path class="st0" d="M-372-4867h116c1.7,0,3,1.3,3,3v24c0,1.7-1.3,3-3,3h-116c-1.7,0-3-1.3-3-3v-24
				C-375-4865.7-373.7-4867-372-4867z"/>
			<path class="st5" d="M-372-4866.5h116c1.4,0,2.5,1.1,2.5,2.5v24c0,1.4-1.1,2.5-2.5,2.5h-116c-1.4,0-2.5-1.1-2.5-2.5v-24
				C-374.5-4865.4-373.4-4866.5-372-4866.5z"/>
		</g>
		<text transform="matrix(1 0 0 1 199.1831 61.0002)" class="st6 st7 st8">invest/redeem</text>
	</g>
	<g id="Arrow-8" transform="translate(5516.405 3988) rotate(90)">
		
			<rect id="Rectangle_16-5" x="-4001.5" y="5268.5" transform="matrix(2.535182e-06 1 -1 2.535182e-06 1364.5101 9174.4863)" class="st1" width="193" height="2"/>
		<g id="Group_45" transform="translate(956.975 4799.405) rotate(-90)">
			<path id="Path_85-5" class="st1" d="M-367.9-4862.3l-6.7-4.6c-0.1,0-0.2,0-0.3,0c-0.1,0-0.1,0.1-0.1,0.2v9.2c0,0.1,0,0.2,0.1,0.2
				c0,0,0.1,0,0.1,0c0,0,0.1,0,0.1,0l6.7-4.6c0.1,0,0.1-0.1,0.1-0.2C-367.9-4862.2-367.9-4862.3-367.9-4862.3L-367.9-4862.3z"/>
		</g>
		<g id="Group_46-5" transform="translate(966.694 4990.264) rotate(90)">
			<path id="Path_85-6" class="st1" d="M379.1,4871.7l-6.7-4.6c-0.1,0-0.2,0-0.3,0c-0.1,0-0.1,0.1-0.1,0.2v9.2c0,0.1,0,0.2,0.1,0.2
				c0,0,0.1,0,0.1,0c0,0,0.1,0,0.1,0l6.7-4.6c0.1,0,0.1-0.1,0.1-0.2C379.1,4871.8,379.1,4871.7,379.1,4871.7L379.1,4871.7z"/>
		</g>
	</g>
</g>
<g id="Exchanges" transform="translate(854 82)">
	<g id="Arrow-9" transform="translate(5171.405 3988) rotate(90)">
		
			<rect id="Rectangle_16-6" x="-4001.5" y="5268.5" transform="matrix(2.535182e-06 1 -1 2.535182e-06 1364.5101 9174.4863)" class="st1" width="193" height="2"/>
		<g id="Group_45-2" transform="translate(956.975 4799.405) rotate(-90)">
			<path id="Path_85-7" class="st1" d="M-367.9-4862.3l-6.7-4.6c-0.1,0-0.2,0-0.3,0c-0.1,0-0.1,0.1-0.1,0.2v9.2c0,0.1,0,0.2,0.1,0.2
				c0,0,0.1,0,0.1,0c0,0,0.1,0,0.1,0l6.7-4.6c0.1,0,0.1-0.1,0.1-0.2C-367.9-4862.2-367.9-4862.3-367.9-4862.3L-367.9-4862.3z"/>
		</g>
		<g id="Group_46-6" transform="translate(966.694 4990.264) rotate(90)">
			<path id="Path_85-8" class="st1" d="M379.1,4871.7l-6.7-4.6c-0.1,0-0.2,0-0.3,0c-0.1,0-0.1,0.1-0.1,0.2v9.2c0,0.1,0,0.2,0.1,0.2
				c0,0,0.1,0,0.1,0c0,0,0.1,0,0.1,0l6.7-4.6c0.1,0,0.1-0.1,0.1-0.2C379.1,4871.8,379.1,4871.7,379.1,4871.7L379.1,4871.7z"/>
		</g>
	</g>
	<g id="Action-2" transform="translate(-344 -8)">
		<g id="Base-6" transform="translate(561 4908)">
			<path class="st0" d="M-372-4867h116c1.7,0,3,1.3,3,3v24c0,1.7-1.3,3-3,3h-116c-1.7,0-3-1.3-3-3v-24
				C-375-4865.7-373.7-4867-372-4867z"/>
			<path class="st5" d="M-372-4866.5h116c1.4,0,2.5,1.1,2.5,2.5v24c0,1.4-1.1,2.5-2.5,2.5h-116c-1.4,0-2.5-1.1-2.5-2.5v-24
				C-374.5-4865.4-373.4-4866.5-372-4866.5z"/>
		</g>
		<text transform="matrix(1 0 0 1 220.7991 61.0002)" class="st6 st7 st8">buy/sell</text>
	</g>
</g>
</svg>
